<svg width="1539" height="1264" viewBox="0 0 1539 1264" fill="none" xmlns="http://www.w3.org/2000/svg">
<path d="M46.2647 67.75H1V113.015H46.2647V67.75Z" stroke="#777F9B" stroke-opacity="0.1" stroke-width="1.5"/>
<path d="M91.5294 67.75H46.2647V113.015H91.5294V67.75Z" stroke="#777F9B" stroke-opacity="0.1" stroke-width="1.5"/>
<path d="M136.794 67.75H91.5294V113.015H136.794V67.75Z" stroke="#777F9B" stroke-opacity="0.1" stroke-width="1.5"/>
<path d="M182.059 67.75H136.794V113.015H182.059V67.75Z" stroke="#777F9B" stroke-opacity="0.1" stroke-width="1.5"/>
<path d="M227.324 67.75H182.059V113.015H227.324V67.75Z" stroke="#777F9B" stroke-opacity="0.1" stroke-width="1.5"/>
<path d="M272.588 67.75H227.324V113.015H272.588V67.75Z" stroke="#777F9B" stroke-opacity="0.1" stroke-width="1.5"/>
<path d="M317.853 67.75H272.588V113.015H317.853V67.75Z" stroke="#777F9B" stroke-opacity="0.1" stroke-width="1.5"/>
<path d="M363.118 67.75H317.853V113.015H363.118V67.75Z" stroke="#777F9B" stroke-opacity="0.1" stroke-width="1.5"/>
<path d="M408.382 67.75H363.118V113.015H408.382V67.75Z" stroke="#777F9B" stroke-opacity="0.1" stroke-width="1.5"/>
<path d="M453.647 67.75H408.382V113.015H453.647V67.75Z" stroke="#777F9B" stroke-opacity="0.1" stroke-width="1.5"/>
<path d="M498.912 67.75H453.647V113.015H498.912V67.75Z" stroke="#777F9B" stroke-opacity="0.1" stroke-width="1.5"/>
<path d="M544.176 67.75H498.912V113.015H544.176V67.75Z" stroke="#777F9B" stroke-opacity="0.1" stroke-width="1.5"/>
<path d="M589.441 67.75H544.176V113.015H589.441V67.75Z" stroke="#777F9B" stroke-opacity="0.1" stroke-width="1.5"/>
<path d="M634.706 67.75H589.441V113.015H634.706V67.75Z" stroke="#777F9B" stroke-opacity="0.1" stroke-width="1.5"/>
<path d="M679.971 67.75H634.706V113.015H679.971V67.75Z" stroke="#777F9B" stroke-opacity="0.1" stroke-width="1.5"/>
<path d="M725.235 67.75H679.971V113.015H725.235V67.75Z" stroke="#777F9B" stroke-opacity="0.1" stroke-width="1.5"/>
<path d="M770.5 67.75H725.235V113.015H770.5V67.75Z" stroke="#777F9B" stroke-opacity="0.1" stroke-width="1.5"/>
<path d="M46.2647 113.015H1V158.279H46.2647V113.015Z" stroke="#777F9B" stroke-opacity="0.1" stroke-width="1.5"/>
<path d="M91.5294 113.015H46.2647V158.279H91.5294V113.015Z" stroke="#777F9B" stroke-opacity="0.1" stroke-width="1.5"/>
<path d="M136.794 113.015H91.5294V158.279H136.794V113.015Z" stroke="#777F9B" stroke-opacity="0.1" stroke-width="1.5"/>
<path d="M182.059 113.015H136.794V158.279H182.059V113.015Z" stroke="#777F9B" stroke-opacity="0.1" stroke-width="1.5"/>
<path d="M227.324 113.015H182.059V158.279H227.324V113.015Z" stroke="#777F9B" stroke-opacity="0.1" stroke-width="1.5"/>
<path d="M272.588 113.015H227.324V158.279H272.588V113.015Z" stroke="#777F9B" stroke-opacity="0.1" stroke-width="1.5"/>
<path d="M317.853 113.015H272.588V158.279H317.853V113.015Z" stroke="#777F9B" stroke-opacity="0.1" stroke-width="1.5"/>
<path d="M363.118 113.015H317.853V158.279H363.118V113.015Z" stroke="#777F9B" stroke-opacity="0.1" stroke-width="1.5"/>
<path d="M408.382 113.015H363.118V158.279H408.382V113.015Z" stroke="#777F9B" stroke-opacity="0.1" stroke-width="1.5"/>
<path d="M453.647 113.015H408.382V158.279H453.647V113.015Z" stroke="#777F9B" stroke-opacity="0.1" stroke-width="1.5"/>
<path d="M498.912 113.015H453.647V158.279H498.912V113.015Z" stroke="#777F9B" stroke-opacity="0.1" stroke-width="1.5"/>
<path d="M544.176 113.015H498.912V158.279H544.176V113.015Z" stroke="#777F9B" stroke-opacity="0.1" stroke-width="1.5"/>
<path d="M589.441 113.015H544.176V158.279H589.441V113.015Z" stroke="#777F9B" stroke-opacity="0.1" stroke-width="1.5"/>
<path d="M634.706 113.015H589.441V158.279H634.706V113.015Z" stroke="#777F9B" stroke-opacity="0.1" stroke-width="1.5"/>
<path d="M679.971 113.015H634.706V158.279H679.971V113.015Z" stroke="#777F9B" stroke-opacity="0.1" stroke-width="1.5"/>
<path d="M725.235 113.015H679.971V158.279H725.235V113.015Z" stroke="#777F9B" stroke-opacity="0.1" stroke-width="1.5"/>
<path d="M770.5 113.015H725.235V158.279H770.5V113.015Z" stroke="#777F9B" stroke-opacity="0.1" stroke-width="1.5"/>
<path d="M46.2647 158.279H1V203.544H46.2647V158.279Z" stroke="#777F9B" stroke-opacity="0.1" stroke-width="1.5"/>
<path d="M91.5294 158.279H46.2647V203.544H91.5294V158.279Z" stroke="#777F9B" stroke-opacity="0.1" stroke-width="1.5"/>
<path d="M136.794 158.279H91.5294V203.544H136.794V158.279Z" stroke="#777F9B" stroke-opacity="0.1" stroke-width="1.5"/>
<path d="M182.059 158.279H136.794V203.544H182.059V158.279Z" stroke="#777F9B" stroke-opacity="0.1" stroke-width="1.5"/>
<path d="M227.324 158.279H182.059V203.544H227.324V158.279Z" stroke="#777F9B" stroke-opacity="0.1" stroke-width="1.5"/>
<path d="M272.588 158.279H227.324V203.544H272.588V158.279Z" stroke="#777F9B" stroke-opacity="0.1" stroke-width="1.5"/>
<path d="M317.853 158.279H272.588V203.544H317.853V158.279Z" stroke="#777F9B" stroke-opacity="0.1" stroke-width="1.5"/>
<path d="M363.118 158.279H317.853V203.544H363.118V158.279Z" stroke="#777F9B" stroke-opacity="0.1" stroke-width="1.5"/>
<path d="M408.382 158.279H363.118V203.544H408.382V158.279Z" stroke="#777F9B" stroke-opacity="0.1" stroke-width="1.5"/>
<path d="M453.647 158.279H408.382V203.544H453.647V158.279Z" stroke="#777F9B" stroke-opacity="0.1" stroke-width="1.5"/>
<path d="M498.912 158.279H453.647V203.544H498.912V158.279Z" stroke="#777F9B" stroke-opacity="0.1" stroke-width="1.5"/>
<path d="M544.176 158.279H498.912V203.544H544.176V158.279Z" stroke="#777F9B" stroke-opacity="0.1" stroke-width="1.5"/>
<path d="M589.441 158.279H544.176V203.544H589.441V158.279Z" stroke="#777F9B" stroke-opacity="0.1" stroke-width="1.5"/>
<path d="M634.706 158.279H589.441V203.544H634.706V158.279Z" stroke="#777F9B" stroke-opacity="0.1" stroke-width="1.5"/>
<path d="M679.971 158.279H634.706V203.544H679.971V158.279Z" stroke="#777F9B" stroke-opacity="0.1" stroke-width="1.5"/>
<path d="M725.235 158.279H679.971V203.544H725.235V158.279Z" stroke="#777F9B" stroke-opacity="0.1" stroke-width="1.5"/>
<path d="M770.5 158.279H725.235V203.544H770.5V158.279Z" stroke="#777F9B" stroke-opacity="0.1" stroke-width="1.5"/>
<path d="M46.2647 203.544H1V248.809H46.2647V203.544Z" stroke="#777F9B" stroke-opacity="0.1" stroke-width="1.5"/>
<path d="M91.5294 203.544H46.2647V248.809H91.5294V203.544Z" stroke="#777F9B" stroke-opacity="0.1" stroke-width="1.5"/>
<path d="M136.794 203.544H91.5294V248.809H136.794V203.544Z" stroke="#777F9B" stroke-opacity="0.1" stroke-width="1.5"/>
<path d="M182.059 203.544H136.794V248.809H182.059V203.544Z" stroke="#777F9B" stroke-opacity="0.1" stroke-width="1.5"/>
<path d="M227.324 203.544H182.059V248.809H227.324V203.544Z" stroke="#777F9B" stroke-opacity="0.1" stroke-width="1.5"/>
<path d="M272.588 203.544H227.324V248.809H272.588V203.544Z" stroke="#777F9B" stroke-opacity="0.1" stroke-width="1.5"/>
<path d="M317.853 203.544H272.588V248.809H317.853V203.544Z" stroke="#777F9B" stroke-opacity="0.1" stroke-width="1.5"/>
<path d="M363.118 203.544H317.853V248.809H363.118V203.544Z" stroke="#777F9B" stroke-opacity="0.1" stroke-width="1.5"/>
<path d="M408.382 203.544H363.118V248.809H408.382V203.544Z" stroke="#777F9B" stroke-opacity="0.1" stroke-width="1.5"/>
<path d="M453.647 203.544H408.382V248.809H453.647V203.544Z" stroke="#777F9B" stroke-opacity="0.1" stroke-width="1.5"/>
<path d="M498.912 203.544H453.647V248.809H498.912V203.544Z" stroke="#777F9B" stroke-opacity="0.1" stroke-width="1.5"/>
<path d="M544.176 203.544H498.912V248.809H544.176V203.544Z" stroke="#777F9B" stroke-opacity="0.1" stroke-width="1.5"/>
<path d="M589.441 203.544H544.176V248.809H589.441V203.544Z" stroke="#777F9B" stroke-opacity="0.1" stroke-width="1.5"/>
<path d="M634.706 203.544H589.441V248.809H634.706V203.544Z" stroke="#777F9B" stroke-opacity="0.1" stroke-width="1.5"/>
<path d="M679.971 203.544H634.706V248.809H679.971V203.544Z" stroke="#777F9B" stroke-opacity="0.1" stroke-width="1.5"/>
<path d="M725.235 203.544H679.971V248.809H725.235V203.544Z" stroke="#777F9B" stroke-opacity="0.1" stroke-width="1.5"/>
<path d="M770.5 203.544H725.235V248.809H770.5V203.544Z" stroke="#777F9B" stroke-opacity="0.1" stroke-width="1.5"/>
<path d="M46.2647 248.809H1V294.074H46.2647V248.809Z" stroke="#777F9B" stroke-opacity="0.1" stroke-width="1.5"/>
<path d="M91.5294 248.809H46.2647V294.074H91.5294V248.809Z" stroke="#777F9B" stroke-opacity="0.1" stroke-width="1.5"/>
<path d="M136.794 248.809H91.5294V294.074H136.794V248.809Z" stroke="#777F9B" stroke-opacity="0.1" stroke-width="1.5"/>
<path d="M182.059 248.809H136.794V294.074H182.059V248.809Z" stroke="#777F9B" stroke-opacity="0.1" stroke-width="1.5"/>
<path d="M227.324 248.809H182.059V294.074H227.324V248.809Z" stroke="#777F9B" stroke-opacity="0.1" stroke-width="1.5"/>
<path d="M272.588 248.809H227.324V294.074H272.588V248.809Z" stroke="#777F9B" stroke-opacity="0.1" stroke-width="1.5"/>
<path d="M317.853 248.809H272.588V294.074H317.853V248.809Z" stroke="#777F9B" stroke-opacity="0.1" stroke-width="1.5"/>
<path d="M363.118 248.809H317.853V294.074H363.118V248.809Z" stroke="#777F9B" stroke-opacity="0.1" stroke-width="1.5"/>
<path d="M408.382 248.809H363.118V294.074H408.382V248.809Z" stroke="#777F9B" stroke-opacity="0.1" stroke-width="1.5"/>
<path d="M453.647 248.809H408.382V294.074H453.647V248.809Z" stroke="#777F9B" stroke-opacity="0.1" stroke-width="1.5"/>
<path d="M498.912 248.809H453.647V294.074H498.912V248.809Z" stroke="#777F9B" stroke-opacity="0.1" stroke-width="1.5"/>
<path d="M544.176 248.809H498.912V294.074H544.176V248.809Z" stroke="#777F9B" stroke-opacity="0.1" stroke-width="1.5"/>
<path d="M589.441 248.809H544.176V294.074H589.441V248.809Z" stroke="#777F9B" stroke-opacity="0.1" stroke-width="1.5"/>
<path d="M634.706 248.809H589.441V294.074H634.706V248.809Z" stroke="#777F9B" stroke-opacity="0.1" stroke-width="1.5"/>
<path d="M679.971 248.809H634.706V294.074H679.971V248.809Z" stroke="#777F9B" stroke-opacity="0.1" stroke-width="1.5"/>
<path d="M725.235 248.809H679.971V294.074H725.235V248.809Z" stroke="#777F9B" stroke-opacity="0.1" stroke-width="1.5"/>
<path d="M770.5 248.809H725.235V294.074H770.5V248.809Z" stroke="#777F9B" stroke-opacity="0.1" stroke-width="1.5"/>
<path d="M46.2647 294.074H1V339.338H46.2647V294.074Z" stroke="#777F9B" stroke-opacity="0.1" stroke-width="1.5"/>
<path d="M91.5294 294.074H46.2647V339.338H91.5294V294.074Z" stroke="#777F9B" stroke-opacity="0.1" stroke-width="1.5"/>
<path d="M136.794 294.074H91.5294V339.338H136.794V294.074Z" stroke="#777F9B" stroke-opacity="0.1" stroke-width="1.5"/>
<path d="M182.059 294.074H136.794V339.338H182.059V294.074Z" stroke="#777F9B" stroke-opacity="0.1" stroke-width="1.5"/>
<path d="M227.324 294.074H182.059V339.338H227.324V294.074Z" stroke="#777F9B" stroke-opacity="0.1" stroke-width="1.5"/>
<path d="M272.588 294.074H227.324V339.338H272.588V294.074Z" stroke="#777F9B" stroke-opacity="0.1" stroke-width="1.5"/>
<path d="M317.853 294.074H272.588V339.338H317.853V294.074Z" stroke="#777F9B" stroke-opacity="0.1" stroke-width="1.5"/>
<path d="M363.118 294.074H317.853V339.338H363.118V294.074Z" stroke="#777F9B" stroke-opacity="0.1" stroke-width="1.5"/>
<path d="M408.382 294.074H363.118V339.338H408.382V294.074Z" stroke="#777F9B" stroke-opacity="0.1" stroke-width="1.5"/>
<path d="M453.647 294.074H408.382V339.338H453.647V294.074Z" stroke="#777F9B" stroke-opacity="0.1" stroke-width="1.5"/>
<path d="M498.912 294.074H453.647V339.338H498.912V294.074Z" stroke="#777F9B" stroke-opacity="0.1" stroke-width="1.5"/>
<path d="M544.176 294.074H498.912V339.338H544.176V294.074Z" stroke="#777F9B" stroke-opacity="0.1" stroke-width="1.5"/>
<path d="M589.441 294.074H544.176V339.338H589.441V294.074Z" stroke="#777F9B" stroke-opacity="0.1" stroke-width="1.5"/>
<path d="M634.706 294.074H589.441V339.338H634.706V294.074Z" stroke="#777F9B" stroke-opacity="0.1" stroke-width="1.5"/>
<path d="M679.971 294.074H634.706V339.338H679.971V294.074Z" stroke="#777F9B" stroke-opacity="0.1" stroke-width="1.5"/>
<path d="M725.235 294.074H679.971V339.338H725.235V294.074Z" stroke="#777F9B" stroke-opacity="0.1" stroke-width="1.5"/>
<path d="M770.5 294.074H725.235V339.338H770.5V294.074Z" stroke="#777F9B" stroke-opacity="0.1" stroke-width="1.5"/>
<path d="M46.2647 339.338H1V384.603H46.2647V339.338Z" stroke="#777F9B" stroke-opacity="0.1" stroke-width="1.5"/>
<path d="M91.5294 339.338H46.2647V384.603H91.5294V339.338Z" stroke="#777F9B" stroke-opacity="0.1" stroke-width="1.5"/>
<path d="M136.794 339.338H91.5294V384.603H136.794V339.338Z" stroke="#777F9B" stroke-opacity="0.1" stroke-width="1.5"/>
<path d="M182.059 339.338H136.794V384.603H182.059V339.338Z" stroke="#777F9B" stroke-opacity="0.1" stroke-width="1.5"/>
<path d="M227.324 339.338H182.059V384.603H227.324V339.338Z" stroke="#777F9B" stroke-opacity="0.1" stroke-width="1.5"/>
<path d="M272.588 339.338H227.324V384.603H272.588V339.338Z" stroke="#777F9B" stroke-opacity="0.1" stroke-width="1.5"/>
<path d="M317.853 339.338H272.588V384.603H317.853V339.338Z" stroke="#777F9B" stroke-opacity="0.1" stroke-width="1.5"/>
<path d="M363.118 339.338H317.853V384.603H363.118V339.338Z" stroke="#777F9B" stroke-opacity="0.1" stroke-width="1.5"/>
<path d="M408.382 339.338H363.118V384.603H408.382V339.338Z" stroke="#777F9B" stroke-opacity="0.1" stroke-width="1.5"/>
<path d="M453.647 339.338H408.382V384.603H453.647V339.338Z" stroke="#777F9B" stroke-opacity="0.1" stroke-width="1.5"/>
<path d="M498.912 339.338H453.647V384.603H498.912V339.338Z" stroke="#777F9B" stroke-opacity="0.1" stroke-width="1.5"/>
<path d="M544.176 339.338H498.912V384.603H544.176V339.338Z" stroke="#777F9B" stroke-opacity="0.1" stroke-width="1.5"/>
<path d="M589.441 339.338H544.176V384.603H589.441V339.338Z" stroke="#777F9B" stroke-opacity="0.1" stroke-width="1.5"/>
<path d="M634.706 339.338H589.441V384.603H634.706V339.338Z" stroke="#777F9B" stroke-opacity="0.1" stroke-width="1.5"/>
<path d="M679.971 339.338H634.706V384.603H679.971V339.338Z" stroke="#777F9B" stroke-opacity="0.1" stroke-width="1.5"/>
<path d="M725.235 339.338H679.971V384.603H725.235V339.338Z" stroke="#777F9B" stroke-opacity="0.1" stroke-width="1.5"/>
<path d="M770.5 339.338H725.235V384.603H770.5V339.338Z" stroke="#777F9B" stroke-opacity="0.1" stroke-width="1.5"/>
<path d="M46.2647 384.603H1V429.868H46.2647V384.603Z" stroke="#777F9B" stroke-opacity="0.1" stroke-width="1.5"/>
<path d="M91.5294 384.603H46.2647V429.868H91.5294V384.603Z" stroke="#777F9B" stroke-opacity="0.1" stroke-width="1.5"/>
<path d="M136.794 384.603H91.5294V429.868H136.794V384.603Z" stroke="#777F9B" stroke-opacity="0.1" stroke-width="1.5"/>
<path d="M182.059 384.603H136.794V429.868H182.059V384.603Z" stroke="#777F9B" stroke-opacity="0.1" stroke-width="1.5"/>
<path d="M227.324 384.603H182.059V429.868H227.324V384.603Z" stroke="#777F9B" stroke-opacity="0.1" stroke-width="1.5"/>
<path d="M272.588 384.603H227.324V429.868H272.588V384.603Z" stroke="#777F9B" stroke-opacity="0.1" stroke-width="1.5"/>
<path d="M317.853 384.603H272.588V429.868H317.853V384.603Z" stroke="#777F9B" stroke-opacity="0.1" stroke-width="1.5"/>
<path d="M363.118 384.603H317.853V429.868H363.118V384.603Z" stroke="#777F9B" stroke-opacity="0.1" stroke-width="1.5"/>
<path d="M408.382 384.603H363.118V429.868H408.382V384.603Z" stroke="#777F9B" stroke-opacity="0.1" stroke-width="1.5"/>
<path d="M453.647 384.603H408.382V429.868H453.647V384.603Z" stroke="#777F9B" stroke-opacity="0.1" stroke-width="1.5"/>
<path d="M498.912 384.603H453.647V429.868H498.912V384.603Z" stroke="#777F9B" stroke-opacity="0.1" stroke-width="1.5"/>
<path d="M544.176 384.603H498.912V429.868H544.176V384.603Z" stroke="#777F9B" stroke-opacity="0.1" stroke-width="1.5"/>
<path d="M589.441 384.603H544.176V429.868H589.441V384.603Z" stroke="#777F9B" stroke-opacity="0.1" stroke-width="1.5"/>
<path d="M634.706 384.603H589.441V429.868H634.706V384.603Z" stroke="#777F9B" stroke-opacity="0.1" stroke-width="1.5"/>
<path d="M679.971 384.603H634.706V429.868H679.971V384.603Z" stroke="#777F9B" stroke-opacity="0.1" stroke-width="1.5"/>
<path d="M725.235 384.603H679.971V429.868H725.235V384.603Z" stroke="#777F9B" stroke-opacity="0.1" stroke-width="1.5"/>
<path d="M770.5 384.603H725.235V429.868H770.5V384.603Z" stroke="#777F9B" stroke-opacity="0.1" stroke-width="1.5"/>
<path d="M46.2647 429.868H1V475.132H46.2647V429.868Z" stroke="#777F9B" stroke-opacity="0.1" stroke-width="1.5"/>
<path d="M91.5294 429.868H46.2647V475.132H91.5294V429.868Z" stroke="#777F9B" stroke-opacity="0.1" stroke-width="1.5"/>
<path d="M136.794 429.868H91.5294V475.132H136.794V429.868Z" stroke="#777F9B" stroke-opacity="0.1" stroke-width="1.5"/>
<path d="M182.059 429.868H136.794V475.132H182.059V429.868Z" stroke="#777F9B" stroke-opacity="0.1" stroke-width="1.5"/>
<path d="M227.324 429.868H182.059V475.132H227.324V429.868Z" stroke="#777F9B" stroke-opacity="0.1" stroke-width="1.5"/>
<path d="M272.588 429.868H227.324V475.132H272.588V429.868Z" stroke="#777F9B" stroke-opacity="0.1" stroke-width="1.5"/>
<path d="M317.853 429.868H272.588V475.132H317.853V429.868Z" stroke="#777F9B" stroke-opacity="0.1" stroke-width="1.5"/>
<path d="M363.118 429.868H317.853V475.132H363.118V429.868Z" stroke="#777F9B" stroke-opacity="0.1" stroke-width="1.5"/>
<path d="M408.382 429.868H363.118V475.132H408.382V429.868Z" stroke="#777F9B" stroke-opacity="0.1" stroke-width="1.5"/>
<path d="M453.647 429.868H408.382V475.132H453.647V429.868Z" stroke="#777F9B" stroke-opacity="0.1" stroke-width="1.5"/>
<path d="M498.912 429.868H453.647V475.132H498.912V429.868Z" stroke="#777F9B" stroke-opacity="0.1" stroke-width="1.5"/>
<path d="M544.176 429.868H498.912V475.132H544.176V429.868Z" stroke="#777F9B" stroke-opacity="0.1" stroke-width="1.5"/>
<path d="M589.441 429.868H544.176V475.132H589.441V429.868Z" stroke="#777F9B" stroke-opacity="0.1" stroke-width="1.5"/>
<path d="M634.706 429.868H589.441V475.132H634.706V429.868Z" stroke="#777F9B" stroke-opacity="0.1" stroke-width="1.5"/>
<path d="M679.971 429.868H634.706V475.132H679.971V429.868Z" stroke="#777F9B" stroke-opacity="0.1" stroke-width="1.5"/>
<path d="M725.235 429.868H679.971V475.132H725.235V429.868Z" stroke="#777F9B" stroke-opacity="0.1" stroke-width="1.5"/>
<path d="M770.5 429.868H725.235V475.132H770.5V429.868Z" stroke="#777F9B" stroke-opacity="0.1" stroke-width="1.5"/>
<path d="M46.2647 475.132H1V520.397H46.2647V475.132Z" stroke="#777F9B" stroke-opacity="0.1" stroke-width="1.5"/>
<path d="M91.5294 475.132H46.2647V520.397H91.5294V475.132Z" stroke="#777F9B" stroke-opacity="0.1" stroke-width="1.5"/>
<path d="M136.794 475.132H91.5294V520.397H136.794V475.132Z" stroke="#777F9B" stroke-opacity="0.1" stroke-width="1.5"/>
<path d="M182.059 475.132H136.794V520.397H182.059V475.132Z" stroke="#777F9B" stroke-opacity="0.1" stroke-width="1.5"/>
<path d="M227.324 475.132H182.059V520.397H227.324V475.132Z" stroke="#777F9B" stroke-opacity="0.1" stroke-width="1.5"/>
<path d="M272.588 475.132H227.324V520.397H272.588V475.132Z" stroke="#777F9B" stroke-opacity="0.1" stroke-width="1.5"/>
<path d="M317.853 475.132H272.588V520.397H317.853V475.132Z" stroke="#777F9B" stroke-opacity="0.1" stroke-width="1.5"/>
<path d="M363.118 475.132H317.853V520.397H363.118V475.132Z" stroke="#777F9B" stroke-opacity="0.1" stroke-width="1.5"/>
<path d="M408.382 475.132H363.118V520.397H408.382V475.132Z" stroke="#777F9B" stroke-opacity="0.1" stroke-width="1.5"/>
<path d="M453.647 475.132H408.382V520.397H453.647V475.132Z" stroke="#777F9B" stroke-opacity="0.1" stroke-width="1.5"/>
<path d="M498.912 475.132H453.647V520.397H498.912V475.132Z" stroke="#777F9B" stroke-opacity="0.1" stroke-width="1.5"/>
<path d="M544.176 475.132H498.912V520.397H544.176V475.132Z" stroke="#777F9B" stroke-opacity="0.1" stroke-width="1.5"/>
<path d="M589.441 475.132H544.176V520.397H589.441V475.132Z" stroke="#777F9B" stroke-opacity="0.1" stroke-width="1.5"/>
<path d="M634.706 475.132H589.441V520.397H634.706V475.132Z" stroke="#777F9B" stroke-opacity="0.1" stroke-width="1.5"/>
<path d="M679.971 475.132H634.706V520.397H679.971V475.132Z" stroke="#777F9B" stroke-opacity="0.1" stroke-width="1.5"/>
<path d="M725.235 475.132H679.971V520.397H725.235V475.132Z" stroke="#777F9B" stroke-opacity="0.1" stroke-width="1.5"/>
<path d="M770.5 475.132H725.235V520.397H770.5V475.132Z" stroke="#777F9B" stroke-opacity="0.1" stroke-width="1.5"/>
<path d="M46.2647 520.397H1V565.662H46.2647V520.397Z" stroke="#777F9B" stroke-opacity="0.1" stroke-width="1.5"/>
<path d="M91.5294 520.397H46.2647V565.662H91.5294V520.397Z" stroke="#777F9B" stroke-opacity="0.1" stroke-width="1.5"/>
<path d="M136.794 520.397H91.5294V565.662H136.794V520.397Z" stroke="#777F9B" stroke-opacity="0.1" stroke-width="1.5"/>
<path d="M182.059 520.397H136.794V565.662H182.059V520.397Z" stroke="#777F9B" stroke-opacity="0.1" stroke-width="1.5"/>
<path d="M227.324 520.397H182.059V565.662H227.324V520.397Z" stroke="#777F9B" stroke-opacity="0.1" stroke-width="1.5"/>
<path d="M272.588 520.397H227.324V565.662H272.588V520.397Z" stroke="#777F9B" stroke-opacity="0.1" stroke-width="1.5"/>
<path d="M317.853 520.397H272.588V565.662H317.853V520.397Z" stroke="#777F9B" stroke-opacity="0.1" stroke-width="1.5"/>
<path d="M363.118 520.397H317.853V565.662H363.118V520.397Z" stroke="#777F9B" stroke-opacity="0.1" stroke-width="1.5"/>
<path d="M408.382 520.397H363.118V565.662H408.382V520.397Z" stroke="#777F9B" stroke-opacity="0.1" stroke-width="1.5"/>
<path d="M453.647 520.397H408.382V565.662H453.647V520.397Z" stroke="#777F9B" stroke-opacity="0.1" stroke-width="1.5"/>
<path d="M498.912 520.397H453.647V565.662H498.912V520.397Z" stroke="#777F9B" stroke-opacity="0.1" stroke-width="1.5"/>
<path d="M544.176 520.397H498.912V565.662H544.176V520.397Z" stroke="#777F9B" stroke-opacity="0.1" stroke-width="1.5"/>
<path d="M589.441 520.397H544.176V565.662H589.441V520.397Z" stroke="#777F9B" stroke-opacity="0.1" stroke-width="1.5"/>
<path d="M634.706 520.397H589.441V565.662H634.706V520.397Z" stroke="#777F9B" stroke-opacity="0.1" stroke-width="1.5"/>
<path d="M679.971 520.397H634.706V565.662H679.971V520.397Z" stroke="#777F9B" stroke-opacity="0.1" stroke-width="1.5"/>
<path d="M725.235 520.397H679.971V565.662H725.235V520.397Z" stroke="#777F9B" stroke-opacity="0.1" stroke-width="1.5"/>
<path d="M770.5 520.397H725.235V565.662H770.5V520.397Z" stroke="#777F9B" stroke-opacity="0.1" stroke-width="1.5"/>
<path d="M46.2647 565.662H1V610.926H46.2647V565.662Z" stroke="#777F9B" stroke-opacity="0.1" stroke-width="1.5"/>
<path d="M91.5294 565.662H46.2647V610.926H91.5294V565.662Z" stroke="#777F9B" stroke-opacity="0.1" stroke-width="1.5"/>
<path d="M136.794 565.662H91.5294V610.926H136.794V565.662Z" stroke="#777F9B" stroke-opacity="0.1" stroke-width="1.5"/>
<path d="M182.059 565.662H136.794V610.926H182.059V565.662Z" stroke="#777F9B" stroke-opacity="0.1" stroke-width="1.5"/>
<path d="M227.324 565.662H182.059V610.926H227.324V565.662Z" stroke="#777F9B" stroke-opacity="0.1" stroke-width="1.5"/>
<path d="M272.588 565.662H227.324V610.926H272.588V565.662Z" stroke="#777F9B" stroke-opacity="0.1" stroke-width="1.5"/>
<path d="M317.853 565.662H272.588V610.926H317.853V565.662Z" stroke="#777F9B" stroke-opacity="0.1" stroke-width="1.5"/>
<path d="M363.118 565.662H317.853V610.926H363.118V565.662Z" stroke="#777F9B" stroke-opacity="0.1" stroke-width="1.5"/>
<path d="M408.382 565.662H363.118V610.926H408.382V565.662Z" stroke="#777F9B" stroke-opacity="0.1" stroke-width="1.5"/>
<path d="M453.647 565.662H408.382V610.926H453.647V565.662Z" stroke="#777F9B" stroke-opacity="0.1" stroke-width="1.5"/>
<path d="M498.912 565.662H453.647V610.926H498.912V565.662Z" stroke="#777F9B" stroke-opacity="0.1" stroke-width="1.5"/>
<path d="M544.176 565.662H498.912V610.926H544.176V565.662Z" stroke="#777F9B" stroke-opacity="0.1" stroke-width="1.5"/>
<path d="M589.441 565.662H544.176V610.926H589.441V565.662Z" stroke="#777F9B" stroke-opacity="0.1" stroke-width="1.5"/>
<path d="M634.706 565.662H589.441V610.926H634.706V565.662Z" stroke="#777F9B" stroke-opacity="0.1" stroke-width="1.5"/>
<path d="M679.971 565.662H634.706V610.926H679.971V565.662Z" stroke="#777F9B" stroke-opacity="0.1" stroke-width="1.5"/>
<path d="M725.235 565.662H679.971V610.926H725.235V565.662Z" stroke="#777F9B" stroke-opacity="0.1" stroke-width="1.5"/>
<path d="M770.5 565.662H725.235V610.926H770.5V565.662Z" stroke="#777F9B" stroke-opacity="0.1" stroke-width="1.5"/>
<path d="M46.2647 610.926H1V656.191H46.2647V610.926Z" stroke="#777F9B" stroke-opacity="0.1" stroke-width="1.5"/>
<path d="M91.5294 610.926H46.2647V656.191H91.5294V610.926Z" stroke="#777F9B" stroke-opacity="0.1" stroke-width="1.5"/>
<path d="M136.794 610.926H91.5294V656.191H136.794V610.926Z" stroke="#777F9B" stroke-opacity="0.1" stroke-width="1.5"/>
<path d="M182.059 610.926H136.794V656.191H182.059V610.926Z" stroke="#777F9B" stroke-opacity="0.1" stroke-width="1.5"/>
<path d="M227.324 610.926H182.059V656.191H227.324V610.926Z" stroke="#777F9B" stroke-opacity="0.1" stroke-width="1.5"/>
<path d="M272.588 610.926H227.324V656.191H272.588V610.926Z" stroke="#777F9B" stroke-opacity="0.1" stroke-width="1.5"/>
<path d="M317.853 610.926H272.588V656.191H317.853V610.926Z" stroke="#777F9B" stroke-opacity="0.1" stroke-width="1.5"/>
<path d="M363.118 610.926H317.853V656.191H363.118V610.926Z" stroke="#777F9B" stroke-opacity="0.1" stroke-width="1.5"/>
<path d="M408.382 610.926H363.118V656.191H408.382V610.926Z" stroke="#777F9B" stroke-opacity="0.1" stroke-width="1.5"/>
<path d="M453.647 610.926H408.382V656.191H453.647V610.926Z" stroke="#777F9B" stroke-opacity="0.1" stroke-width="1.5"/>
<path d="M498.912 610.926H453.647V656.191H498.912V610.926Z" stroke="#777F9B" stroke-opacity="0.1" stroke-width="1.5"/>
<path d="M544.176 610.926H498.912V656.191H544.176V610.926Z" stroke="#777F9B" stroke-opacity="0.1" stroke-width="1.5"/>
<path d="M589.441 610.926H544.176V656.191H589.441V610.926Z" stroke="#777F9B" stroke-opacity="0.1" stroke-width="1.5"/>
<path d="M634.706 610.926H589.441V656.191H634.706V610.926Z" stroke="#777F9B" stroke-opacity="0.1" stroke-width="1.5"/>
<path d="M679.971 610.926H634.706V656.191H679.971V610.926Z" stroke="#777F9B" stroke-opacity="0.1" stroke-width="1.5"/>
<path d="M725.235 610.926H679.971V656.191H725.235V610.926Z" stroke="#777F9B" stroke-opacity="0.1" stroke-width="1.5"/>
<path d="M770.5 610.926H725.235V656.191H770.5V610.926Z" stroke="#777F9B" stroke-opacity="0.1" stroke-width="1.5"/>
<path d="M46.2647 656.191H1V701.456H46.2647V656.191Z" stroke="#777F9B" stroke-opacity="0.1" stroke-width="1.5"/>
<path d="M91.5294 656.191H46.2647V701.456H91.5294V656.191Z" stroke="#777F9B" stroke-opacity="0.1" stroke-width="1.5"/>
<path d="M136.794 656.191H91.5294V701.456H136.794V656.191Z" stroke="#777F9B" stroke-opacity="0.1" stroke-width="1.5"/>
<path d="M182.059 656.191H136.794V701.456H182.059V656.191Z" stroke="#777F9B" stroke-opacity="0.1" stroke-width="1.5"/>
<path d="M227.324 656.191H182.059V701.456H227.324V656.191Z" stroke="#777F9B" stroke-opacity="0.1" stroke-width="1.5"/>
<path d="M272.588 656.191H227.324V701.456H272.588V656.191Z" stroke="#777F9B" stroke-opacity="0.1" stroke-width="1.5"/>
<path d="M317.853 656.191H272.588V701.456H317.853V656.191Z" stroke="#777F9B" stroke-opacity="0.1" stroke-width="1.5"/>
<path d="M363.118 656.191H317.853V701.456H363.118V656.191Z" stroke="#777F9B" stroke-opacity="0.1" stroke-width="1.5"/>
<path d="M408.382 656.191H363.118V701.456H408.382V656.191Z" stroke="#777F9B" stroke-opacity="0.1" stroke-width="1.5"/>
<path d="M453.647 656.191H408.382V701.456H453.647V656.191Z" stroke="#777F9B" stroke-opacity="0.1" stroke-width="1.5"/>
<path d="M498.912 656.191H453.647V701.456H498.912V656.191Z" stroke="#777F9B" stroke-opacity="0.1" stroke-width="1.5"/>
<path d="M544.176 656.191H498.912V701.456H544.176V656.191Z" stroke="#777F9B" stroke-opacity="0.1" stroke-width="1.5"/>
<path d="M589.441 656.191H544.176V701.456H589.441V656.191Z" stroke="#777F9B" stroke-opacity="0.1" stroke-width="1.5"/>
<path d="M634.706 656.191H589.441V701.456H634.706V656.191Z" stroke="#777F9B" stroke-opacity="0.1" stroke-width="1.5"/>
<path d="M679.971 656.191H634.706V701.456H679.971V656.191Z" stroke="#777F9B" stroke-opacity="0.1" stroke-width="1.5"/>
<path d="M725.235 656.191H679.971V701.456H725.235V656.191Z" stroke="#777F9B" stroke-opacity="0.1" stroke-width="1.5"/>
<path d="M770.5 656.191H725.235V701.456H770.5V656.191Z" stroke="#777F9B" stroke-opacity="0.1" stroke-width="1.5"/>
<path d="M46.2647 701.456H1V746.721H46.2647V701.456Z" stroke="#777F9B" stroke-opacity="0.1" stroke-width="1.5"/>
<path d="M91.5294 701.456H46.2647V746.721H91.5294V701.456Z" stroke="#777F9B" stroke-opacity="0.1" stroke-width="1.5"/>
<path d="M136.794 701.456H91.5294V746.721H136.794V701.456Z" stroke="#777F9B" stroke-opacity="0.1" stroke-width="1.5"/>
<path d="M182.059 701.456H136.794V746.721H182.059V701.456Z" stroke="#777F9B" stroke-opacity="0.1" stroke-width="1.5"/>
<path d="M227.324 701.456H182.059V746.721H227.324V701.456Z" stroke="#777F9B" stroke-opacity="0.1" stroke-width="1.5"/>
<path d="M272.588 701.456H227.324V746.721H272.588V701.456Z" stroke="#777F9B" stroke-opacity="0.1" stroke-width="1.5"/>
<path d="M317.853 701.456H272.588V746.721H317.853V701.456Z" stroke="#777F9B" stroke-opacity="0.1" stroke-width="1.5"/>
<path d="M363.118 701.456H317.853V746.721H363.118V701.456Z" stroke="#777F9B" stroke-opacity="0.1" stroke-width="1.5"/>
<path d="M408.382 701.456H363.118V746.721H408.382V701.456Z" stroke="#777F9B" stroke-opacity="0.1" stroke-width="1.5"/>
<path d="M453.647 701.456H408.382V746.721H453.647V701.456Z" stroke="#777F9B" stroke-opacity="0.1" stroke-width="1.5"/>
<path d="M498.912 701.456H453.647V746.721H498.912V701.456Z" stroke="#777F9B" stroke-opacity="0.1" stroke-width="1.5"/>
<path d="M544.176 701.456H498.912V746.721H544.176V701.456Z" stroke="#777F9B" stroke-opacity="0.1" stroke-width="1.5"/>
<path d="M589.441 701.456H544.176V746.721H589.441V701.456Z" stroke="#777F9B" stroke-opacity="0.1" stroke-width="1.5"/>
<path d="M634.706 701.456H589.441V746.721H634.706V701.456Z" stroke="#777F9B" stroke-opacity="0.1" stroke-width="1.5"/>
<path d="M679.971 701.456H634.706V746.721H679.971V701.456Z" stroke="#777F9B" stroke-opacity="0.1" stroke-width="1.5"/>
<path d="M725.235 701.456H679.971V746.721H725.235V701.456Z" stroke="#777F9B" stroke-opacity="0.1" stroke-width="1.5"/>
<path d="M770.5 701.456H725.235V746.721H770.5V701.456Z" stroke="#777F9B" stroke-opacity="0.1" stroke-width="1.5"/>
<path d="M46.2647 746.721H1V791.985H46.2647V746.721Z" stroke="#777F9B" stroke-opacity="0.1" stroke-width="1.5"/>
<path d="M91.5294 746.721H46.2647V791.985H91.5294V746.721Z" stroke="#777F9B" stroke-opacity="0.1" stroke-width="1.5"/>
<path d="M136.794 746.721H91.5294V791.985H136.794V746.721Z" stroke="#777F9B" stroke-opacity="0.1" stroke-width="1.5"/>
<path d="M182.059 746.721H136.794V791.985H182.059V746.721Z" stroke="#777F9B" stroke-opacity="0.1" stroke-width="1.5"/>
<path d="M227.324 746.721H182.059V791.985H227.324V746.721Z" stroke="#777F9B" stroke-opacity="0.1" stroke-width="1.5"/>
<path d="M272.588 746.721H227.324V791.985H272.588V746.721Z" stroke="#777F9B" stroke-opacity="0.1" stroke-width="1.5"/>
<path d="M317.853 746.721H272.588V791.985H317.853V746.721Z" stroke="#777F9B" stroke-opacity="0.1" stroke-width="1.5"/>
<path d="M363.118 746.721H317.853V791.985H363.118V746.721Z" stroke="#777F9B" stroke-opacity="0.1" stroke-width="1.5"/>
<path d="M408.382 746.721H363.118V791.985H408.382V746.721Z" stroke="#777F9B" stroke-opacity="0.1" stroke-width="1.5"/>
<path d="M453.647 746.721H408.382V791.985H453.647V746.721Z" stroke="#777F9B" stroke-opacity="0.1" stroke-width="1.5"/>
<path d="M498.912 746.721H453.647V791.985H498.912V746.721Z" stroke="#777F9B" stroke-opacity="0.1" stroke-width="1.5"/>
<path d="M544.176 746.721H498.912V791.985H544.176V746.721Z" stroke="#777F9B" stroke-opacity="0.1" stroke-width="1.5"/>
<path d="M589.441 746.721H544.176V791.985H589.441V746.721Z" stroke="#777F9B" stroke-opacity="0.1" stroke-width="1.5"/>
<path d="M634.706 746.721H589.441V791.985H634.706V746.721Z" stroke="#777F9B" stroke-opacity="0.1" stroke-width="1.5"/>
<path d="M679.971 746.721H634.706V791.985H679.971V746.721Z" stroke="#777F9B" stroke-opacity="0.1" stroke-width="1.5"/>
<path d="M725.235 746.721H679.971V791.985H725.235V746.721Z" stroke="#777F9B" stroke-opacity="0.1" stroke-width="1.5"/>
<path d="M770.5 746.721H725.235V791.985H770.5V746.721Z" stroke="#777F9B" stroke-opacity="0.1" stroke-width="1.5"/>
<path d="M46.2647 791.985H1V837.25H46.2647V791.985Z" stroke="#777F9B" stroke-opacity="0.1" stroke-width="1.5"/>
<path d="M91.5294 791.985H46.2647V837.25H91.5294V791.985Z" stroke="#777F9B" stroke-opacity="0.1" stroke-width="1.5"/>
<path d="M136.794 791.985H91.5294V837.25H136.794V791.985Z" stroke="#777F9B" stroke-opacity="0.1" stroke-width="1.5"/>
<path d="M182.059 791.985H136.794V837.25H182.059V791.985Z" stroke="#777F9B" stroke-opacity="0.1" stroke-width="1.5"/>
<path d="M227.324 791.985H182.059V837.25H227.324V791.985Z" stroke="#777F9B" stroke-opacity="0.1" stroke-width="1.5"/>
<path d="M272.588 791.985H227.324V837.25H272.588V791.985Z" stroke="#777F9B" stroke-opacity="0.1" stroke-width="1.5"/>
<path d="M317.853 791.985H272.588V837.25H317.853V791.985Z" stroke="#777F9B" stroke-opacity="0.1" stroke-width="1.5"/>
<path d="M363.118 791.985H317.853V837.25H363.118V791.985Z" stroke="#777F9B" stroke-opacity="0.1" stroke-width="1.5"/>
<path d="M408.382 791.985H363.118V837.25H408.382V791.985Z" stroke="#777F9B" stroke-opacity="0.1" stroke-width="1.5"/>
<path d="M453.647 791.985H408.382V837.25H453.647V791.985Z" stroke="#777F9B" stroke-opacity="0.1" stroke-width="1.5"/>
<path d="M498.912 791.985H453.647V837.25H498.912V791.985Z" stroke="#777F9B" stroke-opacity="0.1" stroke-width="1.5"/>
<path d="M544.176 791.985H498.912V837.25H544.176V791.985Z" stroke="#777F9B" stroke-opacity="0.1" stroke-width="1.5"/>
<path d="M589.441 791.985H544.176V837.25H589.441V791.985Z" stroke="#777F9B" stroke-opacity="0.1" stroke-width="1.5"/>
<path d="M634.706 791.985H589.441V837.25H634.706V791.985Z" stroke="#777F9B" stroke-opacity="0.1" stroke-width="1.5"/>
<path d="M679.971 791.985H634.706V837.25H679.971V791.985Z" stroke="#777F9B" stroke-opacity="0.1" stroke-width="1.5"/>
<path d="M725.235 791.985H679.971V837.25H725.235V791.985Z" stroke="#777F9B" stroke-opacity="0.1" stroke-width="1.5"/>
<path d="M770.5 791.985H725.235V837.25H770.5V791.985Z" stroke="#777F9B" stroke-opacity="0.1" stroke-width="1.5"/>
<path d="M815.765 67.75H770.5V113.015H815.765V67.75Z" stroke="#777F9B" stroke-opacity="0.1" stroke-width="1.5"/>
<path d="M861.029 67.75H815.765V113.015H861.029V67.75Z" stroke="#777F9B" stroke-opacity="0.1" stroke-width="1.5"/>
<path d="M906.294 67.75H861.029V113.015H906.294V67.75Z" stroke="#777F9B" stroke-opacity="0.1" stroke-width="1.5"/>
<path d="M951.559 67.75H906.294V113.015H951.559V67.75Z" stroke="#777F9B" stroke-opacity="0.1" stroke-width="1.5"/>
<path d="M996.824 67.75H951.559V113.015H996.824V67.75Z" stroke="#777F9B" stroke-opacity="0.1" stroke-width="1.5"/>
<path d="M1042.09 67.75H996.823V113.015H1042.09V67.75Z" stroke="#777F9B" stroke-opacity="0.1" stroke-width="1.5"/>
<path d="M1087.35 67.75H1042.09V113.015H1087.35V67.75Z" stroke="#777F9B" stroke-opacity="0.1" stroke-width="1.5"/>
<path d="M1132.62 67.75H1087.35V113.015H1132.62V67.75Z" stroke="#777F9B" stroke-opacity="0.1" stroke-width="1.5"/>
<path d="M1177.88 67.75H1132.62V113.015H1177.88V67.75Z" stroke="#777F9B" stroke-opacity="0.1" stroke-width="1.5"/>
<path d="M1223.15 67.75H1177.88V113.015H1223.15V67.75Z" stroke="#777F9B" stroke-opacity="0.1" stroke-width="1.5"/>
<path d="M1268.41 67.75H1223.15V113.015H1268.41V67.75Z" stroke="#777F9B" stroke-opacity="0.1" stroke-width="1.5"/>
<path d="M1313.68 67.75H1268.41V113.015H1313.68V67.75Z" stroke="#777F9B" stroke-opacity="0.1" stroke-width="1.5"/>
<path d="M1358.94 67.75H1313.68V113.015H1358.94V67.75Z" stroke="#777F9B" stroke-opacity="0.1" stroke-width="1.5"/>
<path d="M1404.21 67.75H1358.94V113.015H1404.21V67.75Z" stroke="#777F9B" stroke-opacity="0.1" stroke-width="1.5"/>
<path d="M1449.47 67.75H1404.21V113.015H1449.47V67.75Z" stroke="#777F9B" stroke-opacity="0.1" stroke-width="1.5"/>
<path d="M1494.74 67.75H1449.47V113.015H1494.74V67.75Z" stroke="#777F9B" stroke-opacity="0.1" stroke-width="1.5"/>
<path d="M1540 67.75H1494.74V113.015H1540V67.75Z" stroke="#777F9B" stroke-opacity="0.1" stroke-width="1.5"/>
<path d="M815.765 113.015H770.5V158.279H815.765V113.015Z" stroke="#777F9B" stroke-opacity="0.1" stroke-width="1.5"/>
<path d="M861.029 113.015H815.765V158.279H861.029V113.015Z" stroke="#777F9B" stroke-opacity="0.1" stroke-width="1.5"/>
<path d="M906.294 113.015H861.029V158.279H906.294V113.015Z" stroke="#777F9B" stroke-opacity="0.1" stroke-width="1.5"/>
<path d="M951.559 113.015H906.294V158.279H951.559V113.015Z" stroke="#777F9B" stroke-opacity="0.1" stroke-width="1.5"/>
<path d="M996.824 113.015H951.559V158.279H996.824V113.015Z" stroke="#777F9B" stroke-opacity="0.1" stroke-width="1.5"/>
<path d="M1042.09 113.015H996.823V158.279H1042.09V113.015Z" stroke="#777F9B" stroke-opacity="0.1" stroke-width="1.5"/>
<path d="M1087.35 113.015H1042.09V158.279H1087.35V113.015Z" stroke="#777F9B" stroke-opacity="0.1" stroke-width="1.5"/>
<path d="M1132.62 113.015H1087.35V158.279H1132.62V113.015Z" stroke="#777F9B" stroke-opacity="0.1" stroke-width="1.5"/>
<path d="M1177.88 113.015H1132.62V158.279H1177.88V113.015Z" stroke="#777F9B" stroke-opacity="0.1" stroke-width="1.5"/>
<path d="M1223.15 113.015H1177.88V158.279H1223.15V113.015Z" stroke="#777F9B" stroke-opacity="0.1" stroke-width="1.5"/>
<path d="M1268.41 113.015H1223.15V158.279H1268.41V113.015Z" stroke="#777F9B" stroke-opacity="0.1" stroke-width="1.5"/>
<path d="M1313.68 113.015H1268.41V158.279H1313.68V113.015Z" stroke="#777F9B" stroke-opacity="0.1" stroke-width="1.5"/>
<path d="M1358.94 113.015H1313.68V158.279H1358.94V113.015Z" stroke="#777F9B" stroke-opacity="0.1" stroke-width="1.5"/>
<path d="M1404.21 113.015H1358.94V158.279H1404.21V113.015Z" stroke="#777F9B" stroke-opacity="0.1" stroke-width="1.5"/>
<path d="M1449.47 113.015H1404.21V158.279H1449.47V113.015Z" stroke="#777F9B" stroke-opacity="0.1" stroke-width="1.5"/>
<path d="M1494.74 113.015H1449.47V158.279H1494.74V113.015Z" stroke="#777F9B" stroke-opacity="0.1" stroke-width="1.5"/>
<path d="M1540 113.015H1494.74V158.279H1540V113.015Z" stroke="#777F9B" stroke-opacity="0.1" stroke-width="1.5"/>
<path d="M815.765 158.279H770.5V203.544H815.765V158.279Z" stroke="#777F9B" stroke-opacity="0.1" stroke-width="1.5"/>
<path d="M861.029 158.279H815.765V203.544H861.029V158.279Z" stroke="#777F9B" stroke-opacity="0.1" stroke-width="1.5"/>
<path d="M906.294 158.279H861.029V203.544H906.294V158.279Z" stroke="#777F9B" stroke-opacity="0.1" stroke-width="1.5"/>
<path d="M951.559 158.279H906.294V203.544H951.559V158.279Z" stroke="#777F9B" stroke-opacity="0.1" stroke-width="1.5"/>
<path d="M996.824 158.279H951.559V203.544H996.824V158.279Z" stroke="#777F9B" stroke-opacity="0.1" stroke-width="1.5"/>
<path d="M1042.09 158.279H996.823V203.544H1042.09V158.279Z" stroke="#777F9B" stroke-opacity="0.1" stroke-width="1.5"/>
<path d="M1087.35 158.279H1042.09V203.544H1087.35V158.279Z" stroke="#777F9B" stroke-opacity="0.1" stroke-width="1.5"/>
<path d="M1132.62 158.279H1087.35V203.544H1132.62V158.279Z" stroke="#777F9B" stroke-opacity="0.1" stroke-width="1.5"/>
<path d="M1177.88 158.279H1132.62V203.544H1177.88V158.279Z" stroke="#777F9B" stroke-opacity="0.1" stroke-width="1.5"/>
<path d="M1223.15 158.279H1177.88V203.544H1223.15V158.279Z" stroke="#777F9B" stroke-opacity="0.1" stroke-width="1.5"/>
<path d="M1268.41 158.279H1223.15V203.544H1268.41V158.279Z" stroke="#777F9B" stroke-opacity="0.1" stroke-width="1.5"/>
<path d="M1313.68 158.279H1268.41V203.544H1313.68V158.279Z" stroke="#777F9B" stroke-opacity="0.1" stroke-width="1.5"/>
<path d="M1358.94 158.279H1313.68V203.544H1358.94V158.279Z" stroke="#777F9B" stroke-opacity="0.1" stroke-width="1.5"/>
<path d="M1404.21 158.279H1358.94V203.544H1404.21V158.279Z" stroke="#777F9B" stroke-opacity="0.1" stroke-width="1.5"/>
<path d="M1449.47 158.279H1404.21V203.544H1449.47V158.279Z" stroke="#777F9B" stroke-opacity="0.1" stroke-width="1.5"/>
<path d="M1494.74 158.279H1449.47V203.544H1494.74V158.279Z" stroke="#777F9B" stroke-opacity="0.1" stroke-width="1.5"/>
<path d="M1540 158.279H1494.74V203.544H1540V158.279Z" stroke="#777F9B" stroke-opacity="0.1" stroke-width="1.5"/>
<path d="M815.765 203.544H770.5V248.809H815.765V203.544Z" stroke="#777F9B" stroke-opacity="0.1" stroke-width="1.5"/>
<path d="M861.029 203.544H815.765V248.809H861.029V203.544Z" stroke="#777F9B" stroke-opacity="0.1" stroke-width="1.5"/>
<path d="M906.294 203.544H861.029V248.809H906.294V203.544Z" stroke="#777F9B" stroke-opacity="0.1" stroke-width="1.5"/>
<path d="M951.559 203.544H906.294V248.809H951.559V203.544Z" stroke="#777F9B" stroke-opacity="0.1" stroke-width="1.5"/>
<path d="M996.824 203.544H951.559V248.809H996.824V203.544Z" stroke="#777F9B" stroke-opacity="0.1" stroke-width="1.5"/>
<path d="M1042.09 203.544H996.823V248.809H1042.09V203.544Z" stroke="#777F9B" stroke-opacity="0.1" stroke-width="1.5"/>
<path d="M1087.35 203.544H1042.09V248.809H1087.35V203.544Z" stroke="#777F9B" stroke-opacity="0.1" stroke-width="1.5"/>
<path d="M1132.62 203.544H1087.35V248.809H1132.62V203.544Z" stroke="#777F9B" stroke-opacity="0.1" stroke-width="1.5"/>
<path d="M1177.88 203.544H1132.62V248.809H1177.88V203.544Z" stroke="#777F9B" stroke-opacity="0.1" stroke-width="1.5"/>
<path d="M1223.15 203.544H1177.88V248.809H1223.15V203.544Z" stroke="#777F9B" stroke-opacity="0.1" stroke-width="1.5"/>
<path d="M1268.41 203.544H1223.15V248.809H1268.41V203.544Z" stroke="#777F9B" stroke-opacity="0.1" stroke-width="1.5"/>
<path d="M1313.68 203.544H1268.41V248.809H1313.68V203.544Z" stroke="#777F9B" stroke-opacity="0.1" stroke-width="1.5"/>
<path d="M1358.94 203.544H1313.68V248.809H1358.94V203.544Z" stroke="#777F9B" stroke-opacity="0.1" stroke-width="1.5"/>
<path d="M1404.21 203.544H1358.94V248.809H1404.21V203.544Z" stroke="#777F9B" stroke-opacity="0.1" stroke-width="1.5"/>
<path d="M1449.47 203.544H1404.21V248.809H1449.47V203.544Z" stroke="#777F9B" stroke-opacity="0.1" stroke-width="1.5"/>
<path d="M1494.74 203.544H1449.47V248.809H1494.74V203.544Z" stroke="#777F9B" stroke-opacity="0.1" stroke-width="1.5"/>
<path d="M1540 203.544H1494.74V248.809H1540V203.544Z" stroke="#777F9B" stroke-opacity="0.1" stroke-width="1.5"/>
<path d="M815.765 248.809H770.5V294.074H815.765V248.809Z" stroke="#777F9B" stroke-opacity="0.1" stroke-width="1.5"/>
<path d="M861.029 248.809H815.765V294.074H861.029V248.809Z" stroke="#777F9B" stroke-opacity="0.1" stroke-width="1.5"/>
<path d="M906.294 248.809H861.029V294.074H906.294V248.809Z" stroke="#777F9B" stroke-opacity="0.1" stroke-width="1.5"/>
<path d="M951.559 248.809H906.294V294.074H951.559V248.809Z" stroke="#777F9B" stroke-opacity="0.1" stroke-width="1.5"/>
<path d="M996.824 248.809H951.559V294.074H996.824V248.809Z" stroke="#777F9B" stroke-opacity="0.1" stroke-width="1.5"/>
<path d="M1042.09 248.809H996.823V294.074H1042.09V248.809Z" stroke="#777F9B" stroke-opacity="0.1" stroke-width="1.5"/>
<path d="M1087.35 248.809H1042.09V294.074H1087.35V248.809Z" stroke="#777F9B" stroke-opacity="0.1" stroke-width="1.5"/>
<path d="M1132.62 248.809H1087.35V294.074H1132.62V248.809Z" stroke="#777F9B" stroke-opacity="0.1" stroke-width="1.5"/>
<path d="M1177.88 248.809H1132.62V294.074H1177.88V248.809Z" stroke="#777F9B" stroke-opacity="0.1" stroke-width="1.5"/>
<path d="M1223.15 248.809H1177.88V294.074H1223.15V248.809Z" stroke="#777F9B" stroke-opacity="0.1" stroke-width="1.5"/>
<path d="M1268.41 248.809H1223.15V294.074H1268.41V248.809Z" stroke="#777F9B" stroke-opacity="0.1" stroke-width="1.5"/>
<path d="M1313.68 248.809H1268.41V294.074H1313.68V248.809Z" stroke="#777F9B" stroke-opacity="0.1" stroke-width="1.5"/>
<path d="M1358.94 248.809H1313.68V294.074H1358.94V248.809Z" stroke="#777F9B" stroke-opacity="0.1" stroke-width="1.5"/>
<path d="M1404.21 248.809H1358.94V294.074H1404.21V248.809Z" stroke="#777F9B" stroke-opacity="0.1" stroke-width="1.5"/>
<path d="M1449.47 248.809H1404.21V294.074H1449.47V248.809Z" stroke="#777F9B" stroke-opacity="0.1" stroke-width="1.5"/>
<path d="M1494.74 248.809H1449.47V294.074H1494.74V248.809Z" stroke="#777F9B" stroke-opacity="0.1" stroke-width="1.5"/>
<path d="M1540 248.809H1494.74V294.074H1540V248.809Z" stroke="#777F9B" stroke-opacity="0.1" stroke-width="1.5"/>
<path d="M815.765 294.074H770.5V339.338H815.765V294.074Z" stroke="#777F9B" stroke-opacity="0.1" stroke-width="1.5"/>
<path d="M861.029 294.074H815.765V339.338H861.029V294.074Z" stroke="#777F9B" stroke-opacity="0.1" stroke-width="1.5"/>
<path d="M906.294 294.074H861.029V339.338H906.294V294.074Z" stroke="#777F9B" stroke-opacity="0.1" stroke-width="1.5"/>
<path d="M951.559 294.074H906.294V339.338H951.559V294.074Z" stroke="#777F9B" stroke-opacity="0.1" stroke-width="1.5"/>
<path d="M996.824 294.074H951.559V339.338H996.824V294.074Z" stroke="#777F9B" stroke-opacity="0.1" stroke-width="1.5"/>
<path d="M1042.09 294.074H996.823V339.338H1042.09V294.074Z" stroke="#777F9B" stroke-opacity="0.1" stroke-width="1.5"/>
<path d="M1087.35 294.074H1042.09V339.338H1087.35V294.074Z" stroke="#777F9B" stroke-opacity="0.1" stroke-width="1.5"/>
<path d="M1132.62 294.074H1087.35V339.338H1132.62V294.074Z" stroke="#777F9B" stroke-opacity="0.1" stroke-width="1.5"/>
<path d="M1177.88 294.074H1132.62V339.338H1177.88V294.074Z" stroke="#777F9B" stroke-opacity="0.1" stroke-width="1.5"/>
<path d="M1223.15 294.074H1177.88V339.338H1223.15V294.074Z" stroke="#777F9B" stroke-opacity="0.1" stroke-width="1.5"/>
<path d="M1268.41 294.074H1223.15V339.338H1268.41V294.074Z" stroke="#777F9B" stroke-opacity="0.1" stroke-width="1.5"/>
<path d="M1313.68 294.074H1268.41V339.338H1313.68V294.074Z" stroke="#777F9B" stroke-opacity="0.1" stroke-width="1.5"/>
<path d="M1358.94 294.074H1313.68V339.338H1358.94V294.074Z" stroke="#777F9B" stroke-opacity="0.1" stroke-width="1.5"/>
<path d="M1404.21 294.074H1358.94V339.338H1404.21V294.074Z" stroke="#777F9B" stroke-opacity="0.1" stroke-width="1.5"/>
<path d="M1449.47 294.074H1404.21V339.338H1449.47V294.074Z" stroke="#777F9B" stroke-opacity="0.1" stroke-width="1.5"/>
<path d="M1494.74 294.074H1449.47V339.338H1494.74V294.074Z" stroke="#777F9B" stroke-opacity="0.1" stroke-width="1.5"/>
<path d="M1540 294.074H1494.74V339.338H1540V294.074Z" stroke="#777F9B" stroke-opacity="0.1" stroke-width="1.5"/>
<path d="M815.765 339.338H770.5V384.603H815.765V339.338Z" stroke="#777F9B" stroke-opacity="0.1" stroke-width="1.5"/>
<path d="M861.029 339.338H815.765V384.603H861.029V339.338Z" stroke="#777F9B" stroke-opacity="0.1" stroke-width="1.5"/>
<path d="M906.294 339.338H861.029V384.603H906.294V339.338Z" stroke="#777F9B" stroke-opacity="0.1" stroke-width="1.5"/>
<path d="M951.559 339.338H906.294V384.603H951.559V339.338Z" stroke="#777F9B" stroke-opacity="0.1" stroke-width="1.5"/>
<path d="M996.824 339.338H951.559V384.603H996.824V339.338Z" stroke="#777F9B" stroke-opacity="0.1" stroke-width="1.5"/>
<path d="M1042.09 339.338H996.823V384.603H1042.09V339.338Z" stroke="#777F9B" stroke-opacity="0.1" stroke-width="1.5"/>
<path d="M1087.35 339.338H1042.09V384.603H1087.35V339.338Z" stroke="#777F9B" stroke-opacity="0.1" stroke-width="1.5"/>
<path d="M1132.62 339.338H1087.35V384.603H1132.62V339.338Z" stroke="#777F9B" stroke-opacity="0.1" stroke-width="1.5"/>
<path d="M1177.88 339.338H1132.62V384.603H1177.88V339.338Z" stroke="#777F9B" stroke-opacity="0.1" stroke-width="1.5"/>
<path d="M1223.15 339.338H1177.88V384.603H1223.15V339.338Z" stroke="#777F9B" stroke-opacity="0.1" stroke-width="1.5"/>
<path d="M1268.41 339.338H1223.15V384.603H1268.41V339.338Z" stroke="#777F9B" stroke-opacity="0.1" stroke-width="1.5"/>
<path d="M1313.68 339.338H1268.41V384.603H1313.68V339.338Z" stroke="#777F9B" stroke-opacity="0.1" stroke-width="1.5"/>
<path d="M1358.94 339.338H1313.68V384.603H1358.94V339.338Z" stroke="#777F9B" stroke-opacity="0.1" stroke-width="1.5"/>
<path d="M1404.21 339.338H1358.94V384.603H1404.21V339.338Z" stroke="#777F9B" stroke-opacity="0.1" stroke-width="1.5"/>
<path d="M1449.47 339.338H1404.21V384.603H1449.47V339.338Z" stroke="#777F9B" stroke-opacity="0.1" stroke-width="1.5"/>
<path d="M1494.74 339.338H1449.47V384.603H1494.74V339.338Z" stroke="#777F9B" stroke-opacity="0.1" stroke-width="1.5"/>
<path d="M1540 339.338H1494.74V384.603H1540V339.338Z" stroke="#777F9B" stroke-opacity="0.1" stroke-width="1.5"/>
<path d="M815.765 384.603H770.5V429.868H815.765V384.603Z" stroke="#777F9B" stroke-opacity="0.1" stroke-width="1.5"/>
<path d="M861.029 384.603H815.765V429.868H861.029V384.603Z" stroke="#777F9B" stroke-opacity="0.1" stroke-width="1.5"/>
<path d="M906.294 384.603H861.029V429.868H906.294V384.603Z" stroke="#777F9B" stroke-opacity="0.1" stroke-width="1.5"/>
<path d="M951.559 384.603H906.294V429.868H951.559V384.603Z" stroke="#777F9B" stroke-opacity="0.1" stroke-width="1.5"/>
<path d="M996.824 384.603H951.559V429.868H996.824V384.603Z" stroke="#777F9B" stroke-opacity="0.1" stroke-width="1.5"/>
<path d="M1042.09 384.603H996.823V429.868H1042.09V384.603Z" stroke="#777F9B" stroke-opacity="0.1" stroke-width="1.5"/>
<path d="M1087.35 384.603H1042.09V429.868H1087.35V384.603Z" stroke="#777F9B" stroke-opacity="0.1" stroke-width="1.5"/>
<path d="M1132.62 384.603H1087.35V429.868H1132.62V384.603Z" stroke="#777F9B" stroke-opacity="0.1" stroke-width="1.5"/>
<path d="M1177.88 384.603H1132.62V429.868H1177.88V384.603Z" stroke="#777F9B" stroke-opacity="0.1" stroke-width="1.5"/>
<path d="M1223.15 384.603H1177.88V429.868H1223.15V384.603Z" stroke="#777F9B" stroke-opacity="0.1" stroke-width="1.5"/>
<path d="M1268.41 384.603H1223.15V429.868H1268.41V384.603Z" stroke="#777F9B" stroke-opacity="0.1" stroke-width="1.5"/>
<path d="M1313.68 384.603H1268.41V429.868H1313.68V384.603Z" stroke="#777F9B" stroke-opacity="0.1" stroke-width="1.5"/>
<path d="M1358.94 384.603H1313.68V429.868H1358.94V384.603Z" stroke="#777F9B" stroke-opacity="0.1" stroke-width="1.5"/>
<path d="M1404.21 384.603H1358.94V429.868H1404.21V384.603Z" stroke="#777F9B" stroke-opacity="0.1" stroke-width="1.5"/>
<path d="M1449.47 384.603H1404.21V429.868H1449.47V384.603Z" stroke="#777F9B" stroke-opacity="0.1" stroke-width="1.5"/>
<path d="M1494.74 384.603H1449.47V429.868H1494.74V384.603Z" stroke="#777F9B" stroke-opacity="0.1" stroke-width="1.5"/>
<path d="M1540 384.603H1494.74V429.868H1540V384.603Z" stroke="#777F9B" stroke-opacity="0.1" stroke-width="1.5"/>
<path d="M815.765 429.868H770.5V475.132H815.765V429.868Z" stroke="#777F9B" stroke-opacity="0.1" stroke-width="1.5"/>
<path d="M861.029 429.868H815.765V475.132H861.029V429.868Z" stroke="#777F9B" stroke-opacity="0.1" stroke-width="1.5"/>
<path d="M906.294 429.868H861.029V475.132H906.294V429.868Z" stroke="#777F9B" stroke-opacity="0.1" stroke-width="1.5"/>
<path d="M951.559 429.868H906.294V475.132H951.559V429.868Z" stroke="#777F9B" stroke-opacity="0.1" stroke-width="1.5"/>
<path d="M996.824 429.868H951.559V475.132H996.824V429.868Z" stroke="#777F9B" stroke-opacity="0.1" stroke-width="1.5"/>
<path d="M1042.09 429.868H996.823V475.132H1042.09V429.868Z" stroke="#777F9B" stroke-opacity="0.1" stroke-width="1.5"/>
<path d="M1087.35 429.868H1042.09V475.132H1087.35V429.868Z" stroke="#777F9B" stroke-opacity="0.1" stroke-width="1.5"/>
<path d="M1132.62 429.868H1087.35V475.132H1132.62V429.868Z" stroke="#777F9B" stroke-opacity="0.1" stroke-width="1.5"/>
<path d="M1177.88 429.868H1132.62V475.132H1177.88V429.868Z" stroke="#777F9B" stroke-opacity="0.1" stroke-width="1.5"/>
<path d="M1223.15 429.868H1177.88V475.132H1223.15V429.868Z" stroke="#777F9B" stroke-opacity="0.1" stroke-width="1.5"/>
<path d="M1268.41 429.868H1223.15V475.132H1268.41V429.868Z" stroke="#777F9B" stroke-opacity="0.1" stroke-width="1.5"/>
<path d="M1313.68 429.868H1268.41V475.132H1313.68V429.868Z" stroke="#777F9B" stroke-opacity="0.1" stroke-width="1.5"/>
<path d="M1358.94 429.868H1313.68V475.132H1358.94V429.868Z" stroke="#777F9B" stroke-opacity="0.1" stroke-width="1.5"/>
<path d="M1404.21 429.868H1358.94V475.132H1404.21V429.868Z" stroke="#777F9B" stroke-opacity="0.1" stroke-width="1.5"/>
<path d="M1449.47 429.868H1404.21V475.132H1449.47V429.868Z" stroke="#777F9B" stroke-opacity="0.1" stroke-width="1.5"/>
<path d="M1494.74 429.868H1449.47V475.132H1494.74V429.868Z" stroke="#777F9B" stroke-opacity="0.1" stroke-width="1.5"/>
<path d="M1540 429.868H1494.74V475.132H1540V429.868Z" stroke="#777F9B" stroke-opacity="0.1" stroke-width="1.5"/>
<path d="M815.765 475.132H770.5V520.397H815.765V475.132Z" stroke="#777F9B" stroke-opacity="0.1" stroke-width="1.5"/>
<path d="M861.029 475.132H815.765V520.397H861.029V475.132Z" stroke="#777F9B" stroke-opacity="0.1" stroke-width="1.5"/>
<path d="M906.294 475.132H861.029V520.397H906.294V475.132Z" stroke="#777F9B" stroke-opacity="0.1" stroke-width="1.5"/>
<path d="M951.559 475.132H906.294V520.397H951.559V475.132Z" stroke="#777F9B" stroke-opacity="0.1" stroke-width="1.5"/>
<path d="M996.824 475.132H951.559V520.397H996.824V475.132Z" stroke="#777F9B" stroke-opacity="0.1" stroke-width="1.5"/>
<path d="M1042.09 475.132H996.823V520.397H1042.09V475.132Z" stroke="#777F9B" stroke-opacity="0.1" stroke-width="1.5"/>
<path d="M1087.35 475.132H1042.09V520.397H1087.35V475.132Z" stroke="#777F9B" stroke-opacity="0.1" stroke-width="1.5"/>
<path d="M1132.62 475.132H1087.35V520.397H1132.62V475.132Z" stroke="#777F9B" stroke-opacity="0.1" stroke-width="1.5"/>
<path d="M1177.88 475.132H1132.62V520.397H1177.88V475.132Z" stroke="#777F9B" stroke-opacity="0.1" stroke-width="1.5"/>
<path d="M1223.15 475.132H1177.88V520.397H1223.15V475.132Z" stroke="#777F9B" stroke-opacity="0.1" stroke-width="1.5"/>
<path d="M1268.41 475.132H1223.15V520.397H1268.41V475.132Z" stroke="#777F9B" stroke-opacity="0.1" stroke-width="1.5"/>
<path d="M1313.68 475.132H1268.41V520.397H1313.68V475.132Z" stroke="#777F9B" stroke-opacity="0.1" stroke-width="1.5"/>
<path d="M1358.94 475.132H1313.68V520.397H1358.94V475.132Z" stroke="#777F9B" stroke-opacity="0.1" stroke-width="1.5"/>
<path d="M1404.21 475.132H1358.94V520.397H1404.21V475.132Z" stroke="#777F9B" stroke-opacity="0.1" stroke-width="1.5"/>
<path d="M1449.47 475.132H1404.21V520.397H1449.47V475.132Z" stroke="#777F9B" stroke-opacity="0.1" stroke-width="1.5"/>
<path d="M1494.74 475.132H1449.47V520.397H1494.74V475.132Z" stroke="#777F9B" stroke-opacity="0.1" stroke-width="1.5"/>
<path d="M1540 475.132H1494.74V520.397H1540V475.132Z" stroke="#777F9B" stroke-opacity="0.1" stroke-width="1.5"/>
<path d="M815.765 520.397H770.5V565.662H815.765V520.397Z" stroke="#777F9B" stroke-opacity="0.1" stroke-width="1.5"/>
<path d="M861.029 520.397H815.765V565.662H861.029V520.397Z" stroke="#777F9B" stroke-opacity="0.1" stroke-width="1.5"/>
<path d="M906.294 520.397H861.029V565.662H906.294V520.397Z" stroke="#777F9B" stroke-opacity="0.1" stroke-width="1.5"/>
<path d="M951.559 520.397H906.294V565.662H951.559V520.397Z" stroke="#777F9B" stroke-opacity="0.1" stroke-width="1.5"/>
<path d="M996.824 520.397H951.559V565.662H996.824V520.397Z" stroke="#777F9B" stroke-opacity="0.1" stroke-width="1.5"/>
<path d="M1042.09 520.397H996.823V565.662H1042.09V520.397Z" stroke="#777F9B" stroke-opacity="0.1" stroke-width="1.5"/>
<path d="M1087.35 520.397H1042.09V565.662H1087.35V520.397Z" stroke="#777F9B" stroke-opacity="0.1" stroke-width="1.5"/>
<path d="M1132.62 520.397H1087.35V565.662H1132.62V520.397Z" stroke="#777F9B" stroke-opacity="0.1" stroke-width="1.5"/>
<path d="M1177.88 520.397H1132.62V565.662H1177.88V520.397Z" stroke="#777F9B" stroke-opacity="0.1" stroke-width="1.5"/>
<path d="M1223.15 520.397H1177.88V565.662H1223.15V520.397Z" stroke="#777F9B" stroke-opacity="0.1" stroke-width="1.5"/>
<path d="M1268.41 520.397H1223.15V565.662H1268.41V520.397Z" stroke="#777F9B" stroke-opacity="0.1" stroke-width="1.5"/>
<path d="M1313.68 520.397H1268.41V565.662H1313.68V520.397Z" stroke="#777F9B" stroke-opacity="0.1" stroke-width="1.5"/>
<path d="M1358.94 520.397H1313.68V565.662H1358.94V520.397Z" stroke="#777F9B" stroke-opacity="0.1" stroke-width="1.5"/>
<path d="M1404.21 520.397H1358.94V565.662H1404.21V520.397Z" stroke="#777F9B" stroke-opacity="0.1" stroke-width="1.5"/>
<path d="M1449.47 520.397H1404.21V565.662H1449.47V520.397Z" stroke="#777F9B" stroke-opacity="0.1" stroke-width="1.5"/>
<path d="M1494.74 520.397H1449.47V565.662H1494.74V520.397Z" stroke="#777F9B" stroke-opacity="0.1" stroke-width="1.5"/>
<path d="M1540 520.397H1494.74V565.662H1540V520.397Z" stroke="#777F9B" stroke-opacity="0.1" stroke-width="1.5"/>
<path d="M815.765 565.662H770.5V610.926H815.765V565.662Z" stroke="#777F9B" stroke-opacity="0.1" stroke-width="1.5"/>
<path d="M861.029 565.662H815.765V610.926H861.029V565.662Z" stroke="#777F9B" stroke-opacity="0.1" stroke-width="1.5"/>
<path d="M906.294 565.662H861.029V610.926H906.294V565.662Z" stroke="#777F9B" stroke-opacity="0.1" stroke-width="1.5"/>
<path d="M951.559 565.662H906.294V610.926H951.559V565.662Z" stroke="#777F9B" stroke-opacity="0.1" stroke-width="1.5"/>
<path d="M996.824 565.662H951.559V610.926H996.824V565.662Z" stroke="#777F9B" stroke-opacity="0.1" stroke-width="1.5"/>
<path d="M1042.09 565.662H996.823V610.926H1042.09V565.662Z" stroke="#777F9B" stroke-opacity="0.1" stroke-width="1.5"/>
<path d="M1087.35 565.662H1042.09V610.926H1087.35V565.662Z" stroke="#777F9B" stroke-opacity="0.1" stroke-width="1.5"/>
<path d="M1132.62 565.662H1087.35V610.926H1132.62V565.662Z" stroke="#777F9B" stroke-opacity="0.1" stroke-width="1.5"/>
<path d="M1177.88 565.662H1132.62V610.926H1177.88V565.662Z" stroke="#777F9B" stroke-opacity="0.1" stroke-width="1.5"/>
<path d="M1223.15 565.662H1177.88V610.926H1223.15V565.662Z" stroke="#777F9B" stroke-opacity="0.1" stroke-width="1.5"/>
<path d="M1268.41 565.662H1223.15V610.926H1268.41V565.662Z" stroke="#777F9B" stroke-opacity="0.1" stroke-width="1.5"/>
<path d="M1313.68 565.662H1268.41V610.926H1313.68V565.662Z" stroke="#777F9B" stroke-opacity="0.1" stroke-width="1.5"/>
<path d="M1358.94 565.662H1313.68V610.926H1358.94V565.662Z" stroke="#777F9B" stroke-opacity="0.1" stroke-width="1.5"/>
<path d="M1404.21 565.662H1358.94V610.926H1404.21V565.662Z" stroke="#777F9B" stroke-opacity="0.1" stroke-width="1.5"/>
<path d="M1449.47 565.662H1404.21V610.926H1449.47V565.662Z" stroke="#777F9B" stroke-opacity="0.1" stroke-width="1.5"/>
<path d="M1494.74 565.662H1449.47V610.926H1494.74V565.662Z" stroke="#777F9B" stroke-opacity="0.1" stroke-width="1.5"/>
<path d="M1540 565.662H1494.74V610.926H1540V565.662Z" stroke="#777F9B" stroke-opacity="0.1" stroke-width="1.5"/>
<path d="M815.765 610.926H770.5V656.191H815.765V610.926Z" stroke="#777F9B" stroke-opacity="0.1" stroke-width="1.5"/>
<path d="M861.029 610.926H815.765V656.191H861.029V610.926Z" stroke="#777F9B" stroke-opacity="0.1" stroke-width="1.5"/>
<path d="M906.294 610.926H861.029V656.191H906.294V610.926Z" stroke="#777F9B" stroke-opacity="0.1" stroke-width="1.5"/>
<path d="M951.559 610.926H906.294V656.191H951.559V610.926Z" stroke="#777F9B" stroke-opacity="0.1" stroke-width="1.5"/>
<path d="M996.824 610.926H951.559V656.191H996.824V610.926Z" stroke="#777F9B" stroke-opacity="0.1" stroke-width="1.5"/>
<path d="M1042.09 610.926H996.823V656.191H1042.09V610.926Z" stroke="#777F9B" stroke-opacity="0.1" stroke-width="1.5"/>
<path d="M1087.35 610.926H1042.09V656.191H1087.35V610.926Z" stroke="#777F9B" stroke-opacity="0.1" stroke-width="1.5"/>
<path d="M1132.62 610.926H1087.35V656.191H1132.62V610.926Z" stroke="#777F9B" stroke-opacity="0.1" stroke-width="1.5"/>
<path d="M1177.88 610.926H1132.62V656.191H1177.88V610.926Z" stroke="#777F9B" stroke-opacity="0.1" stroke-width="1.5"/>
<path d="M1223.15 610.926H1177.88V656.191H1223.15V610.926Z" stroke="#777F9B" stroke-opacity="0.1" stroke-width="1.5"/>
<path d="M1268.41 610.926H1223.15V656.191H1268.41V610.926Z" stroke="#777F9B" stroke-opacity="0.1" stroke-width="1.5"/>
<path d="M1313.68 610.926H1268.41V656.191H1313.68V610.926Z" stroke="#777F9B" stroke-opacity="0.1" stroke-width="1.5"/>
<path d="M1358.94 610.926H1313.68V656.191H1358.94V610.926Z" stroke="#777F9B" stroke-opacity="0.1" stroke-width="1.5"/>
<path d="M1404.21 610.926H1358.94V656.191H1404.21V610.926Z" stroke="#777F9B" stroke-opacity="0.1" stroke-width="1.5"/>
<path d="M1449.47 610.926H1404.21V656.191H1449.47V610.926Z" stroke="#777F9B" stroke-opacity="0.1" stroke-width="1.5"/>
<path d="M1494.74 610.926H1449.47V656.191H1494.74V610.926Z" stroke="#777F9B" stroke-opacity="0.1" stroke-width="1.5"/>
<path d="M1540 610.926H1494.74V656.191H1540V610.926Z" stroke="#777F9B" stroke-opacity="0.1" stroke-width="1.5"/>
<path d="M815.765 656.191H770.5V701.456H815.765V656.191Z" stroke="#777F9B" stroke-opacity="0.1" stroke-width="1.5"/>
<path d="M861.029 656.191H815.765V701.456H861.029V656.191Z" stroke="#777F9B" stroke-opacity="0.1" stroke-width="1.5"/>
<path d="M906.294 656.191H861.029V701.456H906.294V656.191Z" stroke="#777F9B" stroke-opacity="0.1" stroke-width="1.5"/>
<path d="M951.559 656.191H906.294V701.456H951.559V656.191Z" stroke="#777F9B" stroke-opacity="0.1" stroke-width="1.5"/>
<path d="M996.824 656.191H951.559V701.456H996.824V656.191Z" stroke="#777F9B" stroke-opacity="0.1" stroke-width="1.5"/>
<path d="M1042.09 656.191H996.823V701.456H1042.09V656.191Z" stroke="#777F9B" stroke-opacity="0.1" stroke-width="1.5"/>
<path d="M1087.35 656.191H1042.09V701.456H1087.35V656.191Z" stroke="#777F9B" stroke-opacity="0.1" stroke-width="1.5"/>
<path d="M1132.62 656.191H1087.35V701.456H1132.62V656.191Z" stroke="#777F9B" stroke-opacity="0.1" stroke-width="1.5"/>
<path d="M1177.88 656.191H1132.62V701.456H1177.88V656.191Z" stroke="#777F9B" stroke-opacity="0.1" stroke-width="1.5"/>
<path d="M1223.15 656.191H1177.88V701.456H1223.15V656.191Z" stroke="#777F9B" stroke-opacity="0.1" stroke-width="1.5"/>
<path d="M1268.41 656.191H1223.15V701.456H1268.41V656.191Z" stroke="#777F9B" stroke-opacity="0.1" stroke-width="1.5"/>
<path d="M1313.68 656.191H1268.41V701.456H1313.68V656.191Z" stroke="#777F9B" stroke-opacity="0.1" stroke-width="1.5"/>
<path d="M1358.94 656.191H1313.68V701.456H1358.94V656.191Z" stroke="#777F9B" stroke-opacity="0.1" stroke-width="1.5"/>
<path d="M1404.21 656.191H1358.94V701.456H1404.21V656.191Z" stroke="#777F9B" stroke-opacity="0.1" stroke-width="1.5"/>
<path d="M1449.47 656.191H1404.21V701.456H1449.47V656.191Z" stroke="#777F9B" stroke-opacity="0.1" stroke-width="1.5"/>
<path d="M1494.74 656.191H1449.47V701.456H1494.74V656.191Z" stroke="#777F9B" stroke-opacity="0.1" stroke-width="1.5"/>
<path d="M1540 656.191H1494.74V701.456H1540V656.191Z" stroke="#777F9B" stroke-opacity="0.1" stroke-width="1.5"/>
<path d="M815.765 701.456H770.5V746.721H815.765V701.456Z" stroke="#777F9B" stroke-opacity="0.1" stroke-width="1.5"/>
<path d="M861.029 701.456H815.765V746.721H861.029V701.456Z" stroke="#777F9B" stroke-opacity="0.1" stroke-width="1.5"/>
<path d="M906.294 701.456H861.029V746.721H906.294V701.456Z" stroke="#777F9B" stroke-opacity="0.1" stroke-width="1.5"/>
<path d="M951.559 701.456H906.294V746.721H951.559V701.456Z" stroke="#777F9B" stroke-opacity="0.1" stroke-width="1.5"/>
<path d="M996.824 701.456H951.559V746.721H996.824V701.456Z" stroke="#777F9B" stroke-opacity="0.1" stroke-width="1.5"/>
<path d="M1042.09 701.456H996.823V746.721H1042.09V701.456Z" stroke="#777F9B" stroke-opacity="0.1" stroke-width="1.5"/>
<path d="M1087.35 701.456H1042.09V746.721H1087.35V701.456Z" stroke="#777F9B" stroke-opacity="0.1" stroke-width="1.5"/>
<path d="M1132.62 701.456H1087.35V746.721H1132.62V701.456Z" stroke="#777F9B" stroke-opacity="0.1" stroke-width="1.5"/>
<path d="M1177.88 701.456H1132.62V746.721H1177.88V701.456Z" stroke="#777F9B" stroke-opacity="0.1" stroke-width="1.5"/>
<path d="M1223.15 701.456H1177.88V746.721H1223.15V701.456Z" stroke="#777F9B" stroke-opacity="0.1" stroke-width="1.5"/>
<path d="M1268.41 701.456H1223.15V746.721H1268.41V701.456Z" stroke="#777F9B" stroke-opacity="0.1" stroke-width="1.5"/>
<path d="M1313.68 701.456H1268.41V746.721H1313.68V701.456Z" stroke="#777F9B" stroke-opacity="0.1" stroke-width="1.5"/>
<path d="M1358.94 701.456H1313.68V746.721H1358.94V701.456Z" stroke="#777F9B" stroke-opacity="0.1" stroke-width="1.5"/>
<path d="M1404.21 701.456H1358.94V746.721H1404.21V701.456Z" stroke="#777F9B" stroke-opacity="0.1" stroke-width="1.5"/>
<path d="M1449.47 701.456H1404.21V746.721H1449.47V701.456Z" stroke="#777F9B" stroke-opacity="0.1" stroke-width="1.5"/>
<path d="M1494.74 701.456H1449.47V746.721H1494.74V701.456Z" stroke="#777F9B" stroke-opacity="0.1" stroke-width="1.5"/>
<path d="M1540 701.456H1494.74V746.721H1540V701.456Z" stroke="#777F9B" stroke-opacity="0.1" stroke-width="1.5"/>
<path d="M815.765 746.721H770.5V791.985H815.765V746.721Z" stroke="#777F9B" stroke-opacity="0.1" stroke-width="1.5"/>
<path d="M861.029 746.721H815.765V791.985H861.029V746.721Z" stroke="#777F9B" stroke-opacity="0.1" stroke-width="1.5"/>
<path d="M906.294 746.721H861.029V791.985H906.294V746.721Z" stroke="#777F9B" stroke-opacity="0.1" stroke-width="1.5"/>
<path d="M951.559 746.721H906.294V791.985H951.559V746.721Z" stroke="#777F9B" stroke-opacity="0.1" stroke-width="1.5"/>
<path d="M996.824 746.721H951.559V791.985H996.824V746.721Z" stroke="#777F9B" stroke-opacity="0.1" stroke-width="1.5"/>
<path d="M1042.09 746.721H996.823V791.985H1042.09V746.721Z" stroke="#777F9B" stroke-opacity="0.1" stroke-width="1.5"/>
<path d="M1087.35 746.721H1042.09V791.985H1087.35V746.721Z" stroke="#777F9B" stroke-opacity="0.1" stroke-width="1.5"/>
<path d="M1132.62 746.721H1087.35V791.985H1132.62V746.721Z" stroke="#777F9B" stroke-opacity="0.1" stroke-width="1.5"/>
<path d="M1177.88 746.721H1132.62V791.985H1177.88V746.721Z" stroke="#777F9B" stroke-opacity="0.1" stroke-width="1.5"/>
<path d="M1223.15 746.721H1177.88V791.985H1223.15V746.721Z" stroke="#777F9B" stroke-opacity="0.1" stroke-width="1.5"/>
<path d="M1268.41 746.721H1223.15V791.985H1268.41V746.721Z" stroke="#777F9B" stroke-opacity="0.1" stroke-width="1.5"/>
<path d="M1313.68 746.721H1268.41V791.985H1313.68V746.721Z" stroke="#777F9B" stroke-opacity="0.1" stroke-width="1.5"/>
<path d="M1358.94 746.721H1313.68V791.985H1358.94V746.721Z" stroke="#777F9B" stroke-opacity="0.1" stroke-width="1.5"/>
<path d="M1404.21 746.721H1358.94V791.985H1404.21V746.721Z" stroke="#777F9B" stroke-opacity="0.1" stroke-width="1.5"/>
<path d="M1449.47 746.721H1404.21V791.985H1449.47V746.721Z" stroke="#777F9B" stroke-opacity="0.1" stroke-width="1.5"/>
<path d="M1494.74 746.721H1449.47V791.985H1494.74V746.721Z" stroke="#777F9B" stroke-opacity="0.1" stroke-width="1.5"/>
<path d="M1540 746.721H1494.74V791.985H1540V746.721Z" stroke="#777F9B" stroke-opacity="0.1" stroke-width="1.5"/>
<path d="M815.765 791.985H770.5V837.25H815.765V791.985Z" stroke="#777F9B" stroke-opacity="0.1" stroke-width="1.5"/>
<path d="M861.029 791.985H815.765V837.25H861.029V791.985Z" stroke="#777F9B" stroke-opacity="0.1" stroke-width="1.5"/>
<path d="M906.294 791.985H861.029V837.25H906.294V791.985Z" stroke="#777F9B" stroke-opacity="0.1" stroke-width="1.5"/>
<path d="M951.559 791.985H906.294V837.25H951.559V791.985Z" stroke="#777F9B" stroke-opacity="0.1" stroke-width="1.5"/>
<path d="M996.824 791.985H951.559V837.25H996.824V791.985Z" stroke="#777F9B" stroke-opacity="0.1" stroke-width="1.5"/>
<path d="M1042.09 791.985H996.823V837.25H1042.09V791.985Z" stroke="#777F9B" stroke-opacity="0.1" stroke-width="1.5"/>
<path d="M1087.35 791.985H1042.09V837.25H1087.35V791.985Z" stroke="#777F9B" stroke-opacity="0.1" stroke-width="1.5"/>
<path d="M1132.62 791.985H1087.35V837.25H1132.62V791.985Z" stroke="#777F9B" stroke-opacity="0.1" stroke-width="1.5"/>
<path d="M1177.88 791.985H1132.62V837.25H1177.88V791.985Z" stroke="#777F9B" stroke-opacity="0.1" stroke-width="1.5"/>
<path d="M1223.15 791.985H1177.88V837.25H1223.15V791.985Z" stroke="#777F9B" stroke-opacity="0.1" stroke-width="1.5"/>
<path d="M1268.41 791.985H1223.15V837.25H1268.41V791.985Z" stroke="#777F9B" stroke-opacity="0.1" stroke-width="1.5"/>
<path d="M1313.68 791.985H1268.41V837.25H1313.68V791.985Z" stroke="#777F9B" stroke-opacity="0.1" stroke-width="1.5"/>
<path d="M1358.94 791.985H1313.68V837.25H1358.94V791.985Z" stroke="#777F9B" stroke-opacity="0.1" stroke-width="1.5"/>
<path d="M1404.21 791.985H1358.94V837.25H1404.21V791.985Z" stroke="#777F9B" stroke-opacity="0.1" stroke-width="1.5"/>
<path d="M1449.47 791.985H1404.21V837.25H1449.47V791.985Z" stroke="#777F9B" stroke-opacity="0.1" stroke-width="1.5"/>
<path d="M1494.74 791.985H1449.47V837.25H1494.74V791.985Z" stroke="#777F9B" stroke-opacity="0.1" stroke-width="1.5"/>
<path d="M1540 791.985H1494.74V837.25H1540V791.985Z" stroke="#777F9B" stroke-opacity="0.1" stroke-width="1.5"/>
<rect y="255" width="1540" height="1009" fill="url(#paint0_linear_35_3)"/>
<rect width="1540" height="756" fill="url(#paint1_linear_35_3)"/>
<defs>
<linearGradient id="paint0_linear_35_3" x1="770" y1="255" x2="770" y2="1264" gradientUnits="userSpaceOnUse">
<stop stop-color="#00030A" stop-opacity="0"/>
<stop offset="0.598958" stop-color="#00030A"/>
</linearGradient>
<linearGradient id="paint1_linear_35_3" x1="770" y1="0" x2="770" y2="756" gradientUnits="userSpaceOnUse">
<stop stop-color="#00030A"/>
<stop offset="1" stop-color="#00030A" stop-opacity="0"/>
</linearGradient>
</defs>
</svg>
