<svg viewBox="0 0 76 12" fill="none" xmlns="http://www.w3.org/2000/svg">
<path d="M10.6744 9.07306C9.62142 10.6002 7.85172 11.6024 5.84615 11.6024C2.61741 11.6024 0 9.00508 0 5.80118C0 2.59728 2.61741 0 5.84615 0C7.86915 0 9.65215 1.01963 10.7017 2.56924L8.79298 3.86575C8.16126 2.87229 7.05736 2.21407 5.80118 2.21407C3.8391 2.21407 2.24852 3.81992 2.24852 5.80084C2.24852 7.78177 3.8391 9.38762 5.80118 9.38762C7.0515 9.38762 8.15096 8.73553 8.7841 7.74982L10.6744 9.07306Z" fill="white"/>
<path d="M56.9326 11.5574L61.2519 0.0899048H63.2844L67.6037 11.5574H65.1891L62.2682 3.5976L59.3472 11.5574H56.9326Z" fill="white"/>
<path d="M62.2682 11.6023L60.5156 8.90411H64.0207L62.2682 11.6023Z" fill="white"/>
<path d="M10.703 11.5574L15.0222 0.0899048H17.0548L21.3741 11.5574H18.9595L16.0385 3.5976L13.1176 11.5574H10.703Z" fill="white"/>
<path d="M16.0385 11.6023L14.286 8.90411H17.7911L16.0385 11.6023Z" fill="white"/>
<path d="M22.3951 0.0899048H24.7336V11.6023H22.3951V0.0899048Z" fill="white"/>
<path d="M24.7336 0.0899048H26.8022V2.33843H24.7336V0.0899048Z" fill="white"/>
<path d="M31.3474 11.6205L27.9488 6.65558L26.0873 7.92986L28.6088 11.6205H31.3474Z" fill="white"/>
<path d="M26.8022 0.0899048C26.8022 0.0899048 30.5348 0.0899168 30.5348 3.73249C30.5348 7.37505 26.8022 7.55499 26.8022 7.55499V5.30647C26.8022 5.30647 28.1963 5.21653 28.1963 3.82245C28.1963 2.42837 26.8022 2.33843 26.8022 2.33843V0.0899048Z" fill="white"/>
<path d="M25.8129 5.30647H26.8022V7.51002L26.0904 7.93443L25.8129 7.51002V5.30647Z" fill="white"/>
<path d="M32.1989 0.0899048H34.5374V11.6023H32.1989V0.0899048Z" fill="white"/>
<path d="M34.5204 0.0899048H36.1565V2.42677H34.5204V0.0899048Z" fill="white"/>
<path d="M34.5374 9.17393H36.1563V11.6023H34.5374V9.17393Z" fill="white"/>
<path d="M41.7326 5.66624C41.7326 0.134875 36.1563 0.0899048 36.1563 0.0899048V2.42837C36.1563 2.42837 39.3942 2.74316 39.3942 5.66624C39.3942 8.58931 36.1563 9.17393 36.1563 9.17393V11.6023C36.1563 11.6023 41.7326 11.1976 41.7326 5.66624Z" fill="white"/>
<path d="M42.8117 0.690317V11.6023H45.1502V0.0899048L42.8117 0.690317Z" fill="white"/>
<path d="M68.5348 0.690317V11.6023H70.8733V0.0899048L68.5348 0.690317Z" fill="white"/>
<path d="M70.8733 9.35381H75.9999V11.6023H70.8733V9.35381Z" fill="white"/>
<path d="M46.4094 0.0899048H48.5101L53.5147 7.11294V0.0899048H55.8532V11.6023H53.8427L52.7943 10.1311L52.7941 10.1313L48.8378 4.5793V11.6023H46.4094V0.0899048Z" fill="white"/>
</svg>
