<svg viewBox="0 0 28 17" fill="none" xmlns="http://www.w3.org/2000/svg">
<path d="M26.4531 6.37516H26.9531V5.87516V1.9552V1.4552H26.4531H25.0881C24.4715 1.4552 23.8719 1.6025 23.2938 1.88801L23.5153 2.33631L23.2938 1.88801C22.7156 2.17363 22.1997 2.57869 21.7453 3.09477L21.7452 3.09468L21.7374 3.10392C21.5753 3.29727 21.4246 3.50346 21.2852 3.72214V1.98242V1.48242H20.7852H16.2449H15.7449V1.98242V15.5662V16.0662H16.2449H20.8148H21.3148V15.5662V9.1418C21.3148 8.60046 21.3531 8.15397 21.424 7.79625L21.424 7.79625L21.4248 7.79217C21.4903 7.44653 21.6157 7.18754 21.7852 6.99323C21.9455 6.80941 22.1906 6.65276 22.5574 6.54569C22.9289 6.43726 23.4499 6.37516 24.1385 6.37516H26.4531Z" stroke="#F2F4F6"/>
<path d="M8.12203 16.5221C6.87866 16.5221 5.75561 16.3516 4.75289 16.0107C3.75017 15.6698 2.89786 15.1785 2.19596 14.5367C1.49405 13.8749 0.952584 13.0627 0.57155 12.1001C0.190517 11.1375 0 10.0345 0 8.79113C0 6.14395 0.691877 4.18865 2.07563 2.92522C3.47944 1.64174 5.4548 1 8.00171 1C10.5887 1 12.6042 1.6618 14.0481 2.98539C15.5121 4.28892 16.2441 6.2342 16.2441 8.82122V9.96432L4.15126 9.9944C4.15126 10.4757 4.26156 10.8968 4.48216 11.2578C4.72281 11.6188 5.03365 11.9196 5.41469 12.1603C5.79572 12.3809 6.22689 12.5513 6.7082 12.6717C7.1895 12.792 7.68084 12.8522 8.1822 12.8522C9.20497 12.8522 10.0272 12.7017 10.6489 12.4009C11.2706 12.1001 11.6416 11.699 11.7619 11.1977H16.0034C15.6424 13.0828 14.7901 14.4465 13.4465 15.2888C12.1028 16.111 10.328 16.5221 8.12203 16.5221ZM4.15126 7.25697L11.8522 7.31714C11.8522 6.87594 11.7318 6.49491 11.4912 6.17404C11.2505 5.83311 10.9397 5.55235 10.5586 5.33175C10.1776 5.11115 9.75647 4.95072 9.29522 4.85044C8.85402 4.73012 8.43288 4.66995 8.03179 4.66995C7.59059 4.66995 7.13937 4.72009 6.67812 4.82036C6.21686 4.92064 5.79572 5.08107 5.41469 5.30167C5.03365 5.50221 4.72281 5.77295 4.48216 6.11387C4.26156 6.43474 4.15126 6.81578 4.15126 7.25697Z" fill="#F2F4F6"/>
<path d="M24.5137 13.3041L24.514 13.3038C24.8031 13.0259 25.144 12.8884 25.5661 12.8884C25.988 12.8884 26.3176 13.0254 26.5891 13.297C26.8606 13.5685 26.9977 13.898 26.9977 14.3199C26.9977 14.7418 26.8606 15.0713 26.5891 15.3428L26.589 15.3427L26.5819 15.3501C26.3306 15.6119 26.007 15.7514 25.5661 15.7514C25.1415 15.7514 24.8004 15.6192 24.514 15.358C24.2498 15.0904 24.1124 14.7568 24.1124 14.3199C24.1124 13.8791 24.2519 13.5554 24.5137 13.3041Z" stroke="#F2F4F6"/>
</svg>
