<svg width="1540" height="1384" viewBox="0 0 1540 1384" fill="none" xmlns="http://www.w3.org/2000/svg">
<path d="M47.2647 67.75H2V113.015H47.2647V67.75Z" stroke="#777F9B" stroke-opacity="0.015" stroke-width="3.5"/>
<path d="M92.5294 67.75H47.2647V113.015H92.5294V67.75Z" stroke="#777F9B" stroke-opacity="0.015" stroke-width="3.5"/>
<path d="M137.794 67.75H92.5294V113.015H137.794V67.75Z" stroke="#777F9B" stroke-opacity="0.015" stroke-width="3.5"/>
<path d="M183.059 67.75H137.794V113.015H183.059V67.75Z" stroke="#777F9B" stroke-opacity="0.015" stroke-width="3.5"/>
<path d="M228.324 67.75H183.059V113.015H228.324V67.75Z" stroke="#777F9B" stroke-opacity="0.015" stroke-width="3.5"/>
<path d="M273.588 67.75H228.324V113.015H273.588V67.75Z" stroke="#777F9B" stroke-opacity="0.015" stroke-width="3.5"/>
<path d="M318.853 67.75H273.588V113.015H318.853V67.75Z" stroke="#777F9B" stroke-opacity="0.015" stroke-width="3.5"/>
<path d="M364.118 67.75H318.853V113.015H364.118V67.75Z" stroke="#777F9B" stroke-opacity="0.015" stroke-width="3.5"/>
<path d="M409.382 67.75H364.118V113.015H409.382V67.75Z" stroke="#777F9B" stroke-opacity="0.015" stroke-width="3.5"/>
<path d="M454.647 67.75H409.382V113.015H454.647V67.75Z" stroke="#777F9B" stroke-opacity="0.015" stroke-width="3.5"/>
<path d="M499.912 67.75H454.647V113.015H499.912V67.75Z" stroke="#777F9B" stroke-opacity="0.015" stroke-width="3.5"/>
<path d="M545.176 67.75H499.912V113.015H545.176V67.75Z" stroke="#777F9B" stroke-opacity="0.015" stroke-width="3.5"/>
<path d="M590.441 67.75H545.176V113.015H590.441V67.75Z" stroke="#777F9B" stroke-opacity="0.015" stroke-width="3.5"/>
<path d="M635.706 67.75H590.441V113.015H635.706V67.75Z" stroke="#777F9B" stroke-opacity="0.015" stroke-width="3.5"/>
<path d="M680.971 67.75H635.706V113.015H680.971V67.75Z" stroke="#777F9B" stroke-opacity="0.015" stroke-width="3.5"/>
<path d="M726.235 67.75H680.971V113.015H726.235V67.75Z" stroke="#777F9B" stroke-opacity="0.015" stroke-width="3.5"/>
<path d="M771.5 67.75H726.235V113.015H771.5V67.75Z" stroke="#777F9B" stroke-opacity="0.015" stroke-width="3.5"/>
<path d="M47.2647 113.015H2V158.279H47.2647V113.015Z" stroke="#777F9B" stroke-opacity="0.015" stroke-width="3.5"/>
<path d="M92.5294 113.015H47.2647V158.279H92.5294V113.015Z" stroke="#777F9B" stroke-opacity="0.015" stroke-width="3.5"/>
<path d="M137.794 113.015H92.5294V158.279H137.794V113.015Z" stroke="#777F9B" stroke-opacity="0.015" stroke-width="3.5"/>
<path d="M183.059 113.015H137.794V158.279H183.059V113.015Z" stroke="#777F9B" stroke-opacity="0.015" stroke-width="3.5"/>
<path d="M228.324 113.015H183.059V158.279H228.324V113.015Z" stroke="#777F9B" stroke-opacity="0.015" stroke-width="3.5"/>
<path d="M273.588 113.015H228.324V158.279H273.588V113.015Z" stroke="#777F9B" stroke-opacity="0.015" stroke-width="3.5"/>
<path d="M318.853 113.015H273.588V158.279H318.853V113.015Z" stroke="#777F9B" stroke-opacity="0.015" stroke-width="3.5"/>
<path d="M364.118 113.015H318.853V158.279H364.118V113.015Z" stroke="#777F9B" stroke-opacity="0.015" stroke-width="3.5"/>
<path d="M409.382 113.015H364.118V158.279H409.382V113.015Z" stroke="#777F9B" stroke-opacity="0.015" stroke-width="3.5"/>
<path d="M454.647 113.015H409.382V158.279H454.647V113.015Z" stroke="#777F9B" stroke-opacity="0.015" stroke-width="3.5"/>
<path d="M499.912 113.015H454.647V158.279H499.912V113.015Z" stroke="#777F9B" stroke-opacity="0.015" stroke-width="3.5"/>
<path d="M545.176 113.015H499.912V158.279H545.176V113.015Z" stroke="#777F9B" stroke-opacity="0.015" stroke-width="3.5"/>
<path d="M590.441 113.015H545.176V158.279H590.441V113.015Z" stroke="#777F9B" stroke-opacity="0.015" stroke-width="3.5"/>
<path d="M635.706 113.015H590.441V158.279H635.706V113.015Z" stroke="#777F9B" stroke-opacity="0.015" stroke-width="3.5"/>
<path d="M680.971 113.015H635.706V158.279H680.971V113.015Z" stroke="#777F9B" stroke-opacity="0.015" stroke-width="3.5"/>
<path d="M726.235 113.015H680.971V158.279H726.235V113.015Z" stroke="#777F9B" stroke-opacity="0.015" stroke-width="3.5"/>
<path d="M771.5 113.015H726.235V158.279H771.5V113.015Z" stroke="#777F9B" stroke-opacity="0.015" stroke-width="3.5"/>
<path d="M47.2647 158.279H2V203.544H47.2647V158.279Z" stroke="#777F9B" stroke-opacity="0.015" stroke-width="3.5"/>
<path d="M92.5294 158.279H47.2647V203.544H92.5294V158.279Z" stroke="#777F9B" stroke-opacity="0.015" stroke-width="3.5"/>
<path d="M137.794 158.279H92.5294V203.544H137.794V158.279Z" stroke="#777F9B" stroke-opacity="0.015" stroke-width="3.5"/>
<path d="M183.059 158.279H137.794V203.544H183.059V158.279Z" stroke="#777F9B" stroke-opacity="0.015" stroke-width="3.5"/>
<path d="M228.324 158.279H183.059V203.544H228.324V158.279Z" stroke="#777F9B" stroke-opacity="0.015" stroke-width="3.5"/>
<path d="M273.588 158.279H228.324V203.544H273.588V158.279Z" stroke="#777F9B" stroke-opacity="0.015" stroke-width="3.5"/>
<path d="M318.853 158.279H273.588V203.544H318.853V158.279Z" stroke="#777F9B" stroke-opacity="0.015" stroke-width="3.5"/>
<path d="M364.118 158.279H318.853V203.544H364.118V158.279Z" stroke="#777F9B" stroke-opacity="0.015" stroke-width="3.5"/>
<path d="M409.382 158.279H364.118V203.544H409.382V158.279Z" stroke="#777F9B" stroke-opacity="0.015" stroke-width="3.5"/>
<path d="M454.647 158.279H409.382V203.544H454.647V158.279Z" stroke="#777F9B" stroke-opacity="0.015" stroke-width="3.5"/>
<path d="M499.912 158.279H454.647V203.544H499.912V158.279Z" stroke="#777F9B" stroke-opacity="0.015" stroke-width="3.5"/>
<path d="M545.176 158.279H499.912V203.544H545.176V158.279Z" stroke="#777F9B" stroke-opacity="0.015" stroke-width="3.5"/>
<path d="M590.441 158.279H545.176V203.544H590.441V158.279Z" stroke="#777F9B" stroke-opacity="0.015" stroke-width="3.5"/>
<path d="M635.706 158.279H590.441V203.544H635.706V158.279Z" stroke="#777F9B" stroke-opacity="0.015" stroke-width="3.5"/>
<path d="M680.971 158.279H635.706V203.544H680.971V158.279Z" stroke="#777F9B" stroke-opacity="0.015" stroke-width="3.5"/>
<path d="M726.235 158.279H680.971V203.544H726.235V158.279Z" stroke="#777F9B" stroke-opacity="0.015" stroke-width="3.5"/>
<path d="M771.5 158.279H726.235V203.544H771.5V158.279Z" stroke="#777F9B" stroke-opacity="0.015" stroke-width="3.5"/>
<path d="M47.2647 203.544H2V248.809H47.2647V203.544Z" stroke="#777F9B" stroke-opacity="0.015" stroke-width="3.5"/>
<path d="M92.5294 203.544H47.2647V248.809H92.5294V203.544Z" stroke="#777F9B" stroke-opacity="0.015" stroke-width="3.5"/>
<path d="M137.794 203.544H92.5294V248.809H137.794V203.544Z" stroke="#777F9B" stroke-opacity="0.015" stroke-width="3.5"/>
<path d="M183.059 203.544H137.794V248.809H183.059V203.544Z" stroke="#777F9B" stroke-opacity="0.015" stroke-width="3.5"/>
<path d="M228.324 203.544H183.059V248.809H228.324V203.544Z" stroke="#777F9B" stroke-opacity="0.015" stroke-width="3.5"/>
<path d="M273.588 203.544H228.324V248.809H273.588V203.544Z" stroke="#777F9B" stroke-opacity="0.015" stroke-width="3.5"/>
<path d="M318.853 203.544H273.588V248.809H318.853V203.544Z" stroke="#777F9B" stroke-opacity="0.015" stroke-width="3.5"/>
<path d="M364.118 203.544H318.853V248.809H364.118V203.544Z" stroke="#777F9B" stroke-opacity="0.015" stroke-width="3.5"/>
<path d="M409.382 203.544H364.118V248.809H409.382V203.544Z" stroke="#777F9B" stroke-opacity="0.015" stroke-width="3.5"/>
<path d="M454.647 203.544H409.382V248.809H454.647V203.544Z" stroke="#777F9B" stroke-opacity="0.015" stroke-width="3.5"/>
<path d="M499.912 203.544H454.647V248.809H499.912V203.544Z" stroke="#777F9B" stroke-opacity="0.015" stroke-width="3.5"/>
<path d="M545.176 203.544H499.912V248.809H545.176V203.544Z" stroke="#777F9B" stroke-opacity="0.015" stroke-width="3.5"/>
<path d="M590.441 203.544H545.176V248.809H590.441V203.544Z" stroke="#777F9B" stroke-opacity="0.015" stroke-width="3.5"/>
<path d="M635.706 203.544H590.441V248.809H635.706V203.544Z" stroke="#777F9B" stroke-opacity="0.015" stroke-width="3.5"/>
<path d="M680.971 203.544H635.706V248.809H680.971V203.544Z" stroke="#777F9B" stroke-opacity="0.015" stroke-width="3.5"/>
<path d="M726.235 203.544H680.971V248.809H726.235V203.544Z" stroke="#777F9B" stroke-opacity="0.015" stroke-width="3.5"/>
<path d="M771.5 203.544H726.235V248.809H771.5V203.544Z" stroke="#777F9B" stroke-opacity="0.015" stroke-width="3.5"/>
<path d="M47.2647 248.809H2V294.074H47.2647V248.809Z" stroke="#777F9B" stroke-opacity="0.015" stroke-width="3.5"/>
<path d="M92.5294 248.809H47.2647V294.074H92.5294V248.809Z" stroke="#777F9B" stroke-opacity="0.015" stroke-width="3.5"/>
<path d="M137.794 248.809H92.5294V294.074H137.794V248.809Z" stroke="#777F9B" stroke-opacity="0.015" stroke-width="3.5"/>
<path d="M183.059 248.809H137.794V294.074H183.059V248.809Z" stroke="#777F9B" stroke-opacity="0.015" stroke-width="3.5"/>
<path d="M228.324 248.809H183.059V294.074H228.324V248.809Z" stroke="#777F9B" stroke-opacity="0.015" stroke-width="3.5"/>
<path d="M273.588 248.809H228.324V294.074H273.588V248.809Z" stroke="#777F9B" stroke-opacity="0.015" stroke-width="3.5"/>
<path d="M318.853 248.809H273.588V294.074H318.853V248.809Z" stroke="#777F9B" stroke-opacity="0.015" stroke-width="3.5"/>
<path d="M364.118 248.809H318.853V294.074H364.118V248.809Z" stroke="#777F9B" stroke-opacity="0.015" stroke-width="3.5"/>
<path d="M409.382 248.809H364.118V294.074H409.382V248.809Z" stroke="#777F9B" stroke-opacity="0.015" stroke-width="3.5"/>
<path d="M454.647 248.809H409.382V294.074H454.647V248.809Z" stroke="#777F9B" stroke-opacity="0.015" stroke-width="3.5"/>
<path d="M499.912 248.809H454.647V294.074H499.912V248.809Z" stroke="#777F9B" stroke-opacity="0.015" stroke-width="3.5"/>
<path d="M545.176 248.809H499.912V294.074H545.176V248.809Z" stroke="#777F9B" stroke-opacity="0.015" stroke-width="3.5"/>
<path d="M590.441 248.809H545.176V294.074H590.441V248.809Z" stroke="#777F9B" stroke-opacity="0.015" stroke-width="3.5"/>
<path d="M635.706 248.809H590.441V294.074H635.706V248.809Z" stroke="#777F9B" stroke-opacity="0.015" stroke-width="3.5"/>
<path d="M680.971 248.809H635.706V294.074H680.971V248.809Z" stroke="#777F9B" stroke-opacity="0.015" stroke-width="3.5"/>
<path d="M726.235 248.809H680.971V294.074H726.235V248.809Z" stroke="#777F9B" stroke-opacity="0.015" stroke-width="3.5"/>
<path d="M771.5 248.809H726.235V294.074H771.5V248.809Z" stroke="#777F9B" stroke-opacity="0.015" stroke-width="3.5"/>
<path d="M47.2647 294.074H2V339.338H47.2647V294.074Z" stroke="#777F9B" stroke-opacity="0.015" stroke-width="3.5"/>
<path d="M92.5294 294.074H47.2647V339.338H92.5294V294.074Z" stroke="#777F9B" stroke-opacity="0.015" stroke-width="3.5"/>
<path d="M137.794 294.074H92.5294V339.338H137.794V294.074Z" stroke="#777F9B" stroke-opacity="0.015" stroke-width="3.5"/>
<path d="M183.059 294.074H137.794V339.338H183.059V294.074Z" stroke="#777F9B" stroke-opacity="0.015" stroke-width="3.5"/>
<path d="M228.324 294.074H183.059V339.338H228.324V294.074Z" stroke="#777F9B" stroke-opacity="0.015" stroke-width="3.5"/>
<path d="M273.588 294.074H228.324V339.338H273.588V294.074Z" stroke="#777F9B" stroke-opacity="0.015" stroke-width="3.5"/>
<path d="M318.853 294.074H273.588V339.338H318.853V294.074Z" stroke="#777F9B" stroke-opacity="0.015" stroke-width="3.5"/>
<path d="M364.118 294.074H318.853V339.338H364.118V294.074Z" stroke="#777F9B" stroke-opacity="0.015" stroke-width="3.5"/>
<path d="M409.382 294.074H364.118V339.338H409.382V294.074Z" stroke="#777F9B" stroke-opacity="0.015" stroke-width="3.5"/>
<path d="M454.647 294.074H409.382V339.338H454.647V294.074Z" stroke="#777F9B" stroke-opacity="0.015" stroke-width="3.5"/>
<path d="M499.912 294.074H454.647V339.338H499.912V294.074Z" stroke="#777F9B" stroke-opacity="0.015" stroke-width="3.5"/>
<path d="M545.176 294.074H499.912V339.338H545.176V294.074Z" stroke="#777F9B" stroke-opacity="0.015" stroke-width="3.5"/>
<path d="M590.441 294.074H545.176V339.338H590.441V294.074Z" stroke="#777F9B" stroke-opacity="0.015" stroke-width="3.5"/>
<path d="M635.706 294.074H590.441V339.338H635.706V294.074Z" stroke="#777F9B" stroke-opacity="0.015" stroke-width="3.5"/>
<path d="M680.971 294.074H635.706V339.338H680.971V294.074Z" stroke="#777F9B" stroke-opacity="0.015" stroke-width="3.5"/>
<path d="M726.235 294.074H680.971V339.338H726.235V294.074Z" stroke="#777F9B" stroke-opacity="0.015" stroke-width="3.5"/>
<path d="M771.5 294.074H726.235V339.338H771.5V294.074Z" stroke="#777F9B" stroke-opacity="0.015" stroke-width="3.5"/>
<path d="M47.2647 339.338H2V384.603H47.2647V339.338Z" stroke="#777F9B" stroke-opacity="0.015" stroke-width="3.5"/>
<path d="M92.5294 339.338H47.2647V384.603H92.5294V339.338Z" stroke="#777F9B" stroke-opacity="0.015" stroke-width="3.5"/>
<path d="M137.794 339.338H92.5294V384.603H137.794V339.338Z" stroke="#777F9B" stroke-opacity="0.015" stroke-width="3.5"/>
<path d="M183.059 339.338H137.794V384.603H183.059V339.338Z" stroke="#777F9B" stroke-opacity="0.015" stroke-width="3.5"/>
<path d="M228.324 339.338H183.059V384.603H228.324V339.338Z" stroke="#777F9B" stroke-opacity="0.015" stroke-width="3.5"/>
<path d="M273.588 339.338H228.324V384.603H273.588V339.338Z" stroke="#777F9B" stroke-opacity="0.015" stroke-width="3.5"/>
<path d="M318.853 339.338H273.588V384.603H318.853V339.338Z" stroke="#777F9B" stroke-opacity="0.015" stroke-width="3.5"/>
<path d="M364.118 339.338H318.853V384.603H364.118V339.338Z" stroke="#777F9B" stroke-opacity="0.015" stroke-width="3.5"/>
<path d="M409.382 339.338H364.118V384.603H409.382V339.338Z" stroke="#777F9B" stroke-opacity="0.015" stroke-width="3.5"/>
<path d="M454.647 339.338H409.382V384.603H454.647V339.338Z" stroke="#777F9B" stroke-opacity="0.015" stroke-width="3.5"/>
<path d="M499.912 339.338H454.647V384.603H499.912V339.338Z" stroke="#777F9B" stroke-opacity="0.015" stroke-width="3.5"/>
<path d="M545.176 339.338H499.912V384.603H545.176V339.338Z" stroke="#777F9B" stroke-opacity="0.015" stroke-width="3.5"/>
<path d="M590.441 339.338H545.176V384.603H590.441V339.338Z" stroke="#777F9B" stroke-opacity="0.015" stroke-width="3.5"/>
<path d="M635.706 339.338H590.441V384.603H635.706V339.338Z" stroke="#777F9B" stroke-opacity="0.015" stroke-width="3.5"/>
<path d="M680.971 339.338H635.706V384.603H680.971V339.338Z" stroke="#777F9B" stroke-opacity="0.015" stroke-width="3.5"/>
<path d="M726.235 339.338H680.971V384.603H726.235V339.338Z" stroke="#777F9B" stroke-opacity="0.015" stroke-width="3.5"/>
<path d="M771.5 339.338H726.235V384.603H771.5V339.338Z" stroke="#777F9B" stroke-opacity="0.015" stroke-width="3.5"/>
<path d="M47.2647 384.603H2V429.868H47.2647V384.603Z" stroke="#777F9B" stroke-opacity="0.015" stroke-width="3.5"/>
<path d="M92.5294 384.603H47.2647V429.868H92.5294V384.603Z" stroke="#777F9B" stroke-opacity="0.015" stroke-width="3.5"/>
<path d="M137.794 384.603H92.5294V429.868H137.794V384.603Z" stroke="#777F9B" stroke-opacity="0.015" stroke-width="3.5"/>
<path d="M183.059 384.603H137.794V429.868H183.059V384.603Z" stroke="#777F9B" stroke-opacity="0.015" stroke-width="3.5"/>
<path d="M228.324 384.603H183.059V429.868H228.324V384.603Z" stroke="#777F9B" stroke-opacity="0.015" stroke-width="3.5"/>
<path d="M273.588 384.603H228.324V429.868H273.588V384.603Z" stroke="#777F9B" stroke-opacity="0.015" stroke-width="3.5"/>
<path d="M318.853 384.603H273.588V429.868H318.853V384.603Z" stroke="#777F9B" stroke-opacity="0.015" stroke-width="3.5"/>
<path d="M364.118 384.603H318.853V429.868H364.118V384.603Z" stroke="#777F9B" stroke-opacity="0.015" stroke-width="3.5"/>
<path d="M409.382 384.603H364.118V429.868H409.382V384.603Z" stroke="#777F9B" stroke-opacity="0.015" stroke-width="3.5"/>
<path d="M454.647 384.603H409.382V429.868H454.647V384.603Z" stroke="#777F9B" stroke-opacity="0.015" stroke-width="3.5"/>
<path d="M499.912 384.603H454.647V429.868H499.912V384.603Z" stroke="#777F9B" stroke-opacity="0.015" stroke-width="3.5"/>
<path d="M545.176 384.603H499.912V429.868H545.176V384.603Z" stroke="#777F9B" stroke-opacity="0.015" stroke-width="3.5"/>
<path d="M590.441 384.603H545.176V429.868H590.441V384.603Z" stroke="#777F9B" stroke-opacity="0.015" stroke-width="3.5"/>
<path d="M635.706 384.603H590.441V429.868H635.706V384.603Z" stroke="#777F9B" stroke-opacity="0.015" stroke-width="3.5"/>
<path d="M680.971 384.603H635.706V429.868H680.971V384.603Z" stroke="#777F9B" stroke-opacity="0.015" stroke-width="3.5"/>
<path d="M726.235 384.603H680.971V429.868H726.235V384.603Z" stroke="#777F9B" stroke-opacity="0.015" stroke-width="3.5"/>
<path d="M771.5 384.603H726.235V429.868H771.5V384.603Z" stroke="#777F9B" stroke-opacity="0.015" stroke-width="3.5"/>
<path d="M47.2647 429.868H2V475.132H47.2647V429.868Z" stroke="#777F9B" stroke-opacity="0.015" stroke-width="3.5"/>
<path d="M92.5294 429.868H47.2647V475.132H92.5294V429.868Z" stroke="#777F9B" stroke-opacity="0.015" stroke-width="3.5"/>
<path d="M137.794 429.868H92.5294V475.132H137.794V429.868Z" stroke="#777F9B" stroke-opacity="0.015" stroke-width="3.5"/>
<path d="M183.059 429.868H137.794V475.132H183.059V429.868Z" stroke="#777F9B" stroke-opacity="0.015" stroke-width="3.5"/>
<path d="M228.324 429.868H183.059V475.132H228.324V429.868Z" stroke="#777F9B" stroke-opacity="0.015" stroke-width="3.5"/>
<path d="M273.588 429.868H228.324V475.132H273.588V429.868Z" stroke="#777F9B" stroke-opacity="0.015" stroke-width="3.5"/>
<path d="M318.853 429.868H273.588V475.132H318.853V429.868Z" stroke="#777F9B" stroke-opacity="0.015" stroke-width="3.5"/>
<path d="M364.118 429.868H318.853V475.132H364.118V429.868Z" stroke="#777F9B" stroke-opacity="0.015" stroke-width="3.5"/>
<path d="M409.382 429.868H364.118V475.132H409.382V429.868Z" stroke="#777F9B" stroke-opacity="0.015" stroke-width="3.5"/>
<path d="M454.647 429.868H409.382V475.132H454.647V429.868Z" stroke="#777F9B" stroke-opacity="0.015" stroke-width="3.5"/>
<path d="M499.912 429.868H454.647V475.132H499.912V429.868Z" stroke="#777F9B" stroke-opacity="0.015" stroke-width="3.5"/>
<path d="M545.176 429.868H499.912V475.132H545.176V429.868Z" stroke="#777F9B" stroke-opacity="0.015" stroke-width="3.5"/>
<path d="M590.441 429.868H545.176V475.132H590.441V429.868Z" stroke="#777F9B" stroke-opacity="0.015" stroke-width="3.5"/>
<path d="M635.706 429.868H590.441V475.132H635.706V429.868Z" stroke="#777F9B" stroke-opacity="0.015" stroke-width="3.5"/>
<path d="M680.971 429.868H635.706V475.132H680.971V429.868Z" stroke="#777F9B" stroke-opacity="0.015" stroke-width="3.5"/>
<path d="M726.235 429.868H680.971V475.132H726.235V429.868Z" stroke="#777F9B" stroke-opacity="0.015" stroke-width="3.5"/>
<path d="M771.5 429.868H726.235V475.132H771.5V429.868Z" stroke="#777F9B" stroke-opacity="0.015" stroke-width="3.5"/>
<path d="M47.2647 475.132H2V520.397H47.2647V475.132Z" stroke="#777F9B" stroke-opacity="0.015" stroke-width="3.5"/>
<path d="M92.5294 475.132H47.2647V520.397H92.5294V475.132Z" stroke="#777F9B" stroke-opacity="0.015" stroke-width="3.5"/>
<path d="M137.794 475.132H92.5294V520.397H137.794V475.132Z" stroke="#777F9B" stroke-opacity="0.015" stroke-width="3.5"/>
<path d="M183.059 475.132H137.794V520.397H183.059V475.132Z" stroke="#777F9B" stroke-opacity="0.015" stroke-width="3.5"/>
<path d="M228.324 475.132H183.059V520.397H228.324V475.132Z" stroke="#777F9B" stroke-opacity="0.015" stroke-width="3.5"/>
<path d="M273.588 475.132H228.324V520.397H273.588V475.132Z" stroke="#777F9B" stroke-opacity="0.015" stroke-width="3.5"/>
<path d="M318.853 475.132H273.588V520.397H318.853V475.132Z" stroke="#777F9B" stroke-opacity="0.015" stroke-width="3.5"/>
<path d="M364.118 475.132H318.853V520.397H364.118V475.132Z" stroke="#777F9B" stroke-opacity="0.015" stroke-width="3.5"/>
<path d="M409.382 475.132H364.118V520.397H409.382V475.132Z" stroke="#777F9B" stroke-opacity="0.015" stroke-width="3.5"/>
<path d="M454.647 475.132H409.382V520.397H454.647V475.132Z" stroke="#777F9B" stroke-opacity="0.015" stroke-width="3.5"/>
<path d="M499.912 475.132H454.647V520.397H499.912V475.132Z" stroke="#777F9B" stroke-opacity="0.015" stroke-width="3.5"/>
<path d="M545.176 475.132H499.912V520.397H545.176V475.132Z" stroke="#777F9B" stroke-opacity="0.015" stroke-width="3.5"/>
<path d="M590.441 475.132H545.176V520.397H590.441V475.132Z" stroke="#777F9B" stroke-opacity="0.015" stroke-width="3.5"/>
<path d="M635.706 475.132H590.441V520.397H635.706V475.132Z" stroke="#777F9B" stroke-opacity="0.015" stroke-width="3.5"/>
<path d="M680.971 475.132H635.706V520.397H680.971V475.132Z" stroke="#777F9B" stroke-opacity="0.015" stroke-width="3.5"/>
<path d="M726.235 475.132H680.971V520.397H726.235V475.132Z" stroke="#777F9B" stroke-opacity="0.015" stroke-width="3.5"/>
<path d="M771.5 475.132H726.235V520.397H771.5V475.132Z" stroke="#777F9B" stroke-opacity="0.015" stroke-width="3.5"/>
<path d="M47.2647 520.397H2V565.662H47.2647V520.397Z" stroke="#777F9B" stroke-opacity="0.015" stroke-width="3.5"/>
<path d="M92.5294 520.397H47.2647V565.662H92.5294V520.397Z" stroke="#777F9B" stroke-opacity="0.015" stroke-width="3.5"/>
<path d="M137.794 520.397H92.5294V565.662H137.794V520.397Z" stroke="#777F9B" stroke-opacity="0.015" stroke-width="3.5"/>
<path d="M183.059 520.397H137.794V565.662H183.059V520.397Z" stroke="#777F9B" stroke-opacity="0.015" stroke-width="3.5"/>
<path d="M228.324 520.397H183.059V565.662H228.324V520.397Z" stroke="#777F9B" stroke-opacity="0.015" stroke-width="3.5"/>
<path d="M273.588 520.397H228.324V565.662H273.588V520.397Z" stroke="#777F9B" stroke-opacity="0.015" stroke-width="3.5"/>
<path d="M318.853 520.397H273.588V565.662H318.853V520.397Z" stroke="#777F9B" stroke-opacity="0.015" stroke-width="3.5"/>
<path d="M364.118 520.397H318.853V565.662H364.118V520.397Z" stroke="#777F9B" stroke-opacity="0.015" stroke-width="3.5"/>
<path d="M409.382 520.397H364.118V565.662H409.382V520.397Z" stroke="#777F9B" stroke-opacity="0.015" stroke-width="3.5"/>
<path d="M454.647 520.397H409.382V565.662H454.647V520.397Z" stroke="#777F9B" stroke-opacity="0.015" stroke-width="3.5"/>
<path d="M499.912 520.397H454.647V565.662H499.912V520.397Z" stroke="#777F9B" stroke-opacity="0.015" stroke-width="3.5"/>
<path d="M545.176 520.397H499.912V565.662H545.176V520.397Z" stroke="#777F9B" stroke-opacity="0.015" stroke-width="3.5"/>
<path d="M590.441 520.397H545.176V565.662H590.441V520.397Z" stroke="#777F9B" stroke-opacity="0.015" stroke-width="3.5"/>
<path d="M635.706 520.397H590.441V565.662H635.706V520.397Z" stroke="#777F9B" stroke-opacity="0.015" stroke-width="3.5"/>
<path d="M680.971 520.397H635.706V565.662H680.971V520.397Z" stroke="#777F9B" stroke-opacity="0.015" stroke-width="3.5"/>
<path d="M726.235 520.397H680.971V565.662H726.235V520.397Z" stroke="#777F9B" stroke-opacity="0.015" stroke-width="3.5"/>
<path d="M771.5 520.397H726.235V565.662H771.5V520.397Z" stroke="#777F9B" stroke-opacity="0.015" stroke-width="3.5"/>
<path d="M47.2647 565.662H2V610.926H47.2647V565.662Z" stroke="#777F9B" stroke-opacity="0.015" stroke-width="3.5"/>
<path d="M92.5294 565.662H47.2647V610.926H92.5294V565.662Z" stroke="#777F9B" stroke-opacity="0.015" stroke-width="3.5"/>
<path d="M137.794 565.662H92.5294V610.926H137.794V565.662Z" stroke="#777F9B" stroke-opacity="0.015" stroke-width="3.5"/>
<path d="M183.059 565.662H137.794V610.926H183.059V565.662Z" stroke="#777F9B" stroke-opacity="0.015" stroke-width="3.5"/>
<path d="M228.324 565.662H183.059V610.926H228.324V565.662Z" stroke="#777F9B" stroke-opacity="0.015" stroke-width="3.5"/>
<path d="M273.588 565.662H228.324V610.926H273.588V565.662Z" stroke="#777F9B" stroke-opacity="0.015" stroke-width="3.5"/>
<path d="M318.853 565.662H273.588V610.926H318.853V565.662Z" stroke="#777F9B" stroke-opacity="0.015" stroke-width="3.5"/>
<path d="M364.118 565.662H318.853V610.926H364.118V565.662Z" stroke="#777F9B" stroke-opacity="0.015" stroke-width="3.5"/>
<path d="M409.382 565.662H364.118V610.926H409.382V565.662Z" stroke="#777F9B" stroke-opacity="0.015" stroke-width="3.5"/>
<path d="M454.647 565.662H409.382V610.926H454.647V565.662Z" stroke="#777F9B" stroke-opacity="0.015" stroke-width="3.5"/>
<path d="M499.912 565.662H454.647V610.926H499.912V565.662Z" stroke="#777F9B" stroke-opacity="0.015" stroke-width="3.5"/>
<path d="M545.176 565.662H499.912V610.926H545.176V565.662Z" stroke="#777F9B" stroke-opacity="0.015" stroke-width="3.5"/>
<path d="M590.441 565.662H545.176V610.926H590.441V565.662Z" stroke="#777F9B" stroke-opacity="0.015" stroke-width="3.5"/>
<path d="M635.706 565.662H590.441V610.926H635.706V565.662Z" stroke="#777F9B" stroke-opacity="0.015" stroke-width="3.5"/>
<path d="M680.971 565.662H635.706V610.926H680.971V565.662Z" stroke="#777F9B" stroke-opacity="0.015" stroke-width="3.5"/>
<path d="M726.235 565.662H680.971V610.926H726.235V565.662Z" stroke="#777F9B" stroke-opacity="0.015" stroke-width="3.5"/>
<path d="M771.5 565.662H726.235V610.926H771.5V565.662Z" stroke="#777F9B" stroke-opacity="0.015" stroke-width="3.5"/>
<path d="M47.2647 610.926H2V656.191H47.2647V610.926Z" stroke="#777F9B" stroke-opacity="0.015" stroke-width="3.5"/>
<path d="M92.5294 610.926H47.2647V656.191H92.5294V610.926Z" stroke="#777F9B" stroke-opacity="0.015" stroke-width="3.5"/>
<path d="M137.794 610.926H92.5294V656.191H137.794V610.926Z" stroke="#777F9B" stroke-opacity="0.015" stroke-width="3.5"/>
<path d="M183.059 610.926H137.794V656.191H183.059V610.926Z" stroke="#777F9B" stroke-opacity="0.015" stroke-width="3.5"/>
<path d="M228.324 610.926H183.059V656.191H228.324V610.926Z" stroke="#777F9B" stroke-opacity="0.015" stroke-width="3.5"/>
<path d="M273.588 610.926H228.324V656.191H273.588V610.926Z" stroke="#777F9B" stroke-opacity="0.015" stroke-width="3.5"/>
<path d="M318.853 610.926H273.588V656.191H318.853V610.926Z" stroke="#777F9B" stroke-opacity="0.015" stroke-width="3.5"/>
<path d="M364.118 610.926H318.853V656.191H364.118V610.926Z" stroke="#777F9B" stroke-opacity="0.015" stroke-width="3.5"/>
<path d="M409.382 610.926H364.118V656.191H409.382V610.926Z" stroke="#777F9B" stroke-opacity="0.015" stroke-width="3.5"/>
<path d="M454.647 610.926H409.382V656.191H454.647V610.926Z" stroke="#777F9B" stroke-opacity="0.015" stroke-width="3.5"/>
<path d="M499.912 610.926H454.647V656.191H499.912V610.926Z" stroke="#777F9B" stroke-opacity="0.015" stroke-width="3.5"/>
<path d="M545.176 610.926H499.912V656.191H545.176V610.926Z" stroke="#777F9B" stroke-opacity="0.015" stroke-width="3.5"/>
<path d="M590.441 610.926H545.176V656.191H590.441V610.926Z" stroke="#777F9B" stroke-opacity="0.015" stroke-width="3.5"/>
<path d="M635.706 610.926H590.441V656.191H635.706V610.926Z" stroke="#777F9B" stroke-opacity="0.015" stroke-width="3.5"/>
<path d="M680.971 610.926H635.706V656.191H680.971V610.926Z" stroke="#777F9B" stroke-opacity="0.015" stroke-width="3.5"/>
<path d="M726.235 610.926H680.971V656.191H726.235V610.926Z" stroke="#777F9B" stroke-opacity="0.015" stroke-width="3.5"/>
<path d="M771.5 610.926H726.235V656.191H771.5V610.926Z" stroke="#777F9B" stroke-opacity="0.015" stroke-width="3.5"/>
<path d="M47.2647 656.191H2V701.456H47.2647V656.191Z" stroke="#777F9B" stroke-opacity="0.015" stroke-width="3.5"/>
<path d="M92.5294 656.191H47.2647V701.456H92.5294V656.191Z" stroke="#777F9B" stroke-opacity="0.015" stroke-width="3.5"/>
<path d="M137.794 656.191H92.5294V701.456H137.794V656.191Z" stroke="#777F9B" stroke-opacity="0.015" stroke-width="3.5"/>
<path d="M183.059 656.191H137.794V701.456H183.059V656.191Z" stroke="#777F9B" stroke-opacity="0.015" stroke-width="3.5"/>
<path d="M228.324 656.191H183.059V701.456H228.324V656.191Z" stroke="#777F9B" stroke-opacity="0.015" stroke-width="3.5"/>
<path d="M273.588 656.191H228.324V701.456H273.588V656.191Z" stroke="#777F9B" stroke-opacity="0.015" stroke-width="3.5"/>
<path d="M318.853 656.191H273.588V701.456H318.853V656.191Z" stroke="#777F9B" stroke-opacity="0.015" stroke-width="3.5"/>
<path d="M364.118 656.191H318.853V701.456H364.118V656.191Z" stroke="#777F9B" stroke-opacity="0.015" stroke-width="3.5"/>
<path d="M409.382 656.191H364.118V701.456H409.382V656.191Z" stroke="#777F9B" stroke-opacity="0.015" stroke-width="3.5"/>
<path d="M454.647 656.191H409.382V701.456H454.647V656.191Z" stroke="#777F9B" stroke-opacity="0.015" stroke-width="3.5"/>
<path d="M499.912 656.191H454.647V701.456H499.912V656.191Z" stroke="#777F9B" stroke-opacity="0.015" stroke-width="3.5"/>
<path d="M545.176 656.191H499.912V701.456H545.176V656.191Z" stroke="#777F9B" stroke-opacity="0.015" stroke-width="3.5"/>
<path d="M590.441 656.191H545.176V701.456H590.441V656.191Z" stroke="#777F9B" stroke-opacity="0.015" stroke-width="3.5"/>
<path d="M635.706 656.191H590.441V701.456H635.706V656.191Z" stroke="#777F9B" stroke-opacity="0.015" stroke-width="3.5"/>
<path d="M680.971 656.191H635.706V701.456H680.971V656.191Z" stroke="#777F9B" stroke-opacity="0.015" stroke-width="3.5"/>
<path d="M726.235 656.191H680.971V701.456H726.235V656.191Z" stroke="#777F9B" stroke-opacity="0.015" stroke-width="3.5"/>
<path d="M771.5 656.191H726.235V701.456H771.5V656.191Z" stroke="#777F9B" stroke-opacity="0.015" stroke-width="3.5"/>
<path d="M47.2647 701.456H2V746.721H47.2647V701.456Z" stroke="#777F9B" stroke-opacity="0.015" stroke-width="3.5"/>
<path d="M92.5294 701.456H47.2647V746.721H92.5294V701.456Z" stroke="#777F9B" stroke-opacity="0.015" stroke-width="3.5"/>
<path d="M137.794 701.456H92.5294V746.721H137.794V701.456Z" stroke="#777F9B" stroke-opacity="0.015" stroke-width="3.5"/>
<path d="M183.059 701.456H137.794V746.721H183.059V701.456Z" stroke="#777F9B" stroke-opacity="0.015" stroke-width="3.5"/>
<path d="M228.324 701.456H183.059V746.721H228.324V701.456Z" stroke="#777F9B" stroke-opacity="0.015" stroke-width="3.5"/>
<path d="M273.588 701.456H228.324V746.721H273.588V701.456Z" stroke="#777F9B" stroke-opacity="0.015" stroke-width="3.5"/>
<path d="M318.853 701.456H273.588V746.721H318.853V701.456Z" stroke="#777F9B" stroke-opacity="0.015" stroke-width="3.5"/>
<path d="M364.118 701.456H318.853V746.721H364.118V701.456Z" stroke="#777F9B" stroke-opacity="0.015" stroke-width="3.5"/>
<path d="M409.382 701.456H364.118V746.721H409.382V701.456Z" stroke="#777F9B" stroke-opacity="0.015" stroke-width="3.5"/>
<path d="M454.647 701.456H409.382V746.721H454.647V701.456Z" stroke="#777F9B" stroke-opacity="0.015" stroke-width="3.5"/>
<path d="M499.912 701.456H454.647V746.721H499.912V701.456Z" stroke="#777F9B" stroke-opacity="0.015" stroke-width="3.5"/>
<path d="M545.176 701.456H499.912V746.721H545.176V701.456Z" stroke="#777F9B" stroke-opacity="0.015" stroke-width="3.5"/>
<path d="M590.441 701.456H545.176V746.721H590.441V701.456Z" stroke="#777F9B" stroke-opacity="0.015" stroke-width="3.5"/>
<path d="M635.706 701.456H590.441V746.721H635.706V701.456Z" stroke="#777F9B" stroke-opacity="0.015" stroke-width="3.5"/>
<path d="M680.971 701.456H635.706V746.721H680.971V701.456Z" stroke="#777F9B" stroke-opacity="0.015" stroke-width="3.5"/>
<path d="M726.235 701.456H680.971V746.721H726.235V701.456Z" stroke="#777F9B" stroke-opacity="0.015" stroke-width="3.5"/>
<path d="M771.5 701.456H726.235V746.721H771.5V701.456Z" stroke="#777F9B" stroke-opacity="0.015" stroke-width="3.5"/>
<path d="M47.2647 746.721H2V791.985H47.2647V746.721Z" stroke="#777F9B" stroke-opacity="0.015" stroke-width="3.5"/>
<path d="M92.5294 746.721H47.2647V791.985H92.5294V746.721Z" stroke="#777F9B" stroke-opacity="0.015" stroke-width="3.5"/>
<path d="M137.794 746.721H92.5294V791.985H137.794V746.721Z" stroke="#777F9B" stroke-opacity="0.015" stroke-width="3.5"/>
<path d="M183.059 746.721H137.794V791.985H183.059V746.721Z" stroke="#777F9B" stroke-opacity="0.015" stroke-width="3.5"/>
<path d="M228.324 746.721H183.059V791.985H228.324V746.721Z" stroke="#777F9B" stroke-opacity="0.015" stroke-width="3.5"/>
<path d="M273.588 746.721H228.324V791.985H273.588V746.721Z" stroke="#777F9B" stroke-opacity="0.015" stroke-width="3.5"/>
<path d="M318.853 746.721H273.588V791.985H318.853V746.721Z" stroke="#777F9B" stroke-opacity="0.015" stroke-width="3.5"/>
<path d="M364.118 746.721H318.853V791.985H364.118V746.721Z" stroke="#777F9B" stroke-opacity="0.015" stroke-width="3.5"/>
<path d="M409.382 746.721H364.118V791.985H409.382V746.721Z" stroke="#777F9B" stroke-opacity="0.015" stroke-width="3.5"/>
<path d="M454.647 746.721H409.382V791.985H454.647V746.721Z" stroke="#777F9B" stroke-opacity="0.015" stroke-width="3.5"/>
<path d="M499.912 746.721H454.647V791.985H499.912V746.721Z" stroke="#777F9B" stroke-opacity="0.015" stroke-width="3.5"/>
<path d="M545.176 746.721H499.912V791.985H545.176V746.721Z" stroke="#777F9B" stroke-opacity="0.015" stroke-width="3.5"/>
<path d="M590.441 746.721H545.176V791.985H590.441V746.721Z" stroke="#777F9B" stroke-opacity="0.015" stroke-width="3.5"/>
<path d="M635.706 746.721H590.441V791.985H635.706V746.721Z" stroke="#777F9B" stroke-opacity="0.015" stroke-width="3.5"/>
<path d="M680.971 746.721H635.706V791.985H680.971V746.721Z" stroke="#777F9B" stroke-opacity="0.015" stroke-width="3.5"/>
<path d="M726.235 746.721H680.971V791.985H726.235V746.721Z" stroke="#777F9B" stroke-opacity="0.015" stroke-width="3.5"/>
<path d="M771.5 746.721H726.235V791.985H771.5V746.721Z" stroke="#777F9B" stroke-opacity="0.015" stroke-width="3.5"/>
<path d="M47.2647 791.985H2V837.25H47.2647V791.985Z" stroke="#777F9B" stroke-opacity="0.015" stroke-width="3.5"/>
<path d="M92.5294 791.985H47.2647V837.25H92.5294V791.985Z" stroke="#777F9B" stroke-opacity="0.015" stroke-width="3.5"/>
<path d="M137.794 791.985H92.5294V837.25H137.794V791.985Z" stroke="#777F9B" stroke-opacity="0.015" stroke-width="3.5"/>
<path d="M183.059 791.985H137.794V837.25H183.059V791.985Z" stroke="#777F9B" stroke-opacity="0.015" stroke-width="3.5"/>
<path d="M228.324 791.985H183.059V837.25H228.324V791.985Z" stroke="#777F9B" stroke-opacity="0.015" stroke-width="3.5"/>
<path d="M273.588 791.985H228.324V837.25H273.588V791.985Z" stroke="#777F9B" stroke-opacity="0.015" stroke-width="3.5"/>
<path d="M318.853 791.985H273.588V837.25H318.853V791.985Z" stroke="#777F9B" stroke-opacity="0.015" stroke-width="3.5"/>
<path d="M364.118 791.985H318.853V837.25H364.118V791.985Z" stroke="#777F9B" stroke-opacity="0.015" stroke-width="3.5"/>
<path d="M409.382 791.985H364.118V837.25H409.382V791.985Z" stroke="#777F9B" stroke-opacity="0.015" stroke-width="3.5"/>
<path d="M454.647 791.985H409.382V837.25H454.647V791.985Z" stroke="#777F9B" stroke-opacity="0.015" stroke-width="3.5"/>
<path d="M499.912 791.985H454.647V837.25H499.912V791.985Z" stroke="#777F9B" stroke-opacity="0.015" stroke-width="3.5"/>
<path d="M545.176 791.985H499.912V837.25H545.176V791.985Z" stroke="#777F9B" stroke-opacity="0.015" stroke-width="3.5"/>
<path d="M590.441 791.985H545.176V837.25H590.441V791.985Z" stroke="#777F9B" stroke-opacity="0.015" stroke-width="3.5"/>
<path d="M635.706 791.985H590.441V837.25H635.706V791.985Z" stroke="#777F9B" stroke-opacity="0.015" stroke-width="3.5"/>
<path d="M680.971 791.985H635.706V837.25H680.971V791.985Z" stroke="#777F9B" stroke-opacity="0.015" stroke-width="3.5"/>
<path d="M726.235 791.985H680.971V837.25H726.235V791.985Z" stroke="#777F9B" stroke-opacity="0.015" stroke-width="3.5"/>
<path d="M771.5 791.985H726.235V837.25H771.5V791.985Z" stroke="#777F9B" stroke-opacity="0.015" stroke-width="3.5"/>
<path d="M816.765 67.75H771.5V113.015H816.765V67.75Z" stroke="#777F9B" stroke-opacity="0.015" stroke-width="3.5"/>
<path d="M862.029 67.75H816.765V113.015H862.029V67.75Z" stroke="#777F9B" stroke-opacity="0.015" stroke-width="3.5"/>
<path d="M907.294 67.75H862.029V113.015H907.294V67.75Z" stroke="#777F9B" stroke-opacity="0.015" stroke-width="3.5"/>
<path d="M952.559 67.75H907.294V113.015H952.559V67.75Z" stroke="#777F9B" stroke-opacity="0.015" stroke-width="3.5"/>
<path d="M997.824 67.75H952.559V113.015H997.824V67.75Z" stroke="#777F9B" stroke-opacity="0.015" stroke-width="3.5"/>
<path d="M1043.09 67.75H997.823V113.015H1043.09V67.75Z" stroke="#777F9B" stroke-opacity="0.015" stroke-width="3.5"/>
<path d="M1088.35 67.75H1043.09V113.015H1088.35V67.75Z" stroke="#777F9B" stroke-opacity="0.015" stroke-width="3.5"/>
<path d="M1133.62 67.75H1088.35V113.015H1133.62V67.75Z" stroke="#777F9B" stroke-opacity="0.015" stroke-width="3.5"/>
<path d="M1178.88 67.75H1133.62V113.015H1178.88V67.75Z" stroke="#777F9B" stroke-opacity="0.015" stroke-width="3.5"/>
<path d="M1224.15 67.75H1178.88V113.015H1224.15V67.75Z" stroke="#777F9B" stroke-opacity="0.015" stroke-width="3.5"/>
<path d="M1269.41 67.75H1224.15V113.015H1269.41V67.75Z" stroke="#777F9B" stroke-opacity="0.015" stroke-width="3.5"/>
<path d="M1314.68 67.75H1269.41V113.015H1314.68V67.75Z" stroke="#777F9B" stroke-opacity="0.015" stroke-width="3.5"/>
<path d="M1359.94 67.75H1314.68V113.015H1359.94V67.75Z" stroke="#777F9B" stroke-opacity="0.015" stroke-width="3.5"/>
<path d="M1405.21 67.75H1359.94V113.015H1405.21V67.75Z" stroke="#777F9B" stroke-opacity="0.015" stroke-width="3.5"/>
<path d="M1450.47 67.75H1405.21V113.015H1450.47V67.75Z" stroke="#777F9B" stroke-opacity="0.015" stroke-width="3.5"/>
<path d="M1495.74 67.75H1450.47V113.015H1495.74V67.75Z" stroke="#777F9B" stroke-opacity="0.015" stroke-width="3.5"/>
<path d="M1541 67.75H1495.74V113.015H1541V67.75Z" stroke="#777F9B" stroke-opacity="0.015" stroke-width="3.5"/>
<path d="M816.765 113.015H771.5V158.279H816.765V113.015Z" stroke="#777F9B" stroke-opacity="0.015" stroke-width="3.5"/>
<path d="M862.029 113.015H816.765V158.279H862.029V113.015Z" stroke="#777F9B" stroke-opacity="0.015" stroke-width="3.5"/>
<path d="M907.294 113.015H862.029V158.279H907.294V113.015Z" stroke="#777F9B" stroke-opacity="0.015" stroke-width="3.5"/>
<path d="M952.559 113.015H907.294V158.279H952.559V113.015Z" stroke="#777F9B" stroke-opacity="0.015" stroke-width="3.5"/>
<path d="M997.824 113.015H952.559V158.279H997.824V113.015Z" stroke="#777F9B" stroke-opacity="0.015" stroke-width="3.5"/>
<path d="M1043.09 113.015H997.823V158.279H1043.09V113.015Z" stroke="#777F9B" stroke-opacity="0.015" stroke-width="3.5"/>
<path d="M1088.35 113.015H1043.09V158.279H1088.35V113.015Z" stroke="#777F9B" stroke-opacity="0.015" stroke-width="3.5"/>
<path d="M1133.62 113.015H1088.35V158.279H1133.62V113.015Z" stroke="#777F9B" stroke-opacity="0.015" stroke-width="3.5"/>
<path d="M1178.88 113.015H1133.62V158.279H1178.88V113.015Z" stroke="#777F9B" stroke-opacity="0.015" stroke-width="3.5"/>
<path d="M1224.15 113.015H1178.88V158.279H1224.15V113.015Z" stroke="#777F9B" stroke-opacity="0.015" stroke-width="3.5"/>
<path d="M1269.41 113.015H1224.15V158.279H1269.41V113.015Z" stroke="#777F9B" stroke-opacity="0.015" stroke-width="3.5"/>
<path d="M1314.68 113.015H1269.41V158.279H1314.68V113.015Z" stroke="#777F9B" stroke-opacity="0.015" stroke-width="3.5"/>
<path d="M1359.94 113.015H1314.68V158.279H1359.94V113.015Z" stroke="#777F9B" stroke-opacity="0.015" stroke-width="3.5"/>
<path d="M1405.21 113.015H1359.94V158.279H1405.21V113.015Z" stroke="#777F9B" stroke-opacity="0.015" stroke-width="3.5"/>
<path d="M1450.47 113.015H1405.21V158.279H1450.47V113.015Z" stroke="#777F9B" stroke-opacity="0.015" stroke-width="3.5"/>
<path d="M1495.74 113.015H1450.47V158.279H1495.74V113.015Z" stroke="#777F9B" stroke-opacity="0.015" stroke-width="3.5"/>
<path d="M1541 113.015H1495.74V158.279H1541V113.015Z" stroke="#777F9B" stroke-opacity="0.015" stroke-width="3.5"/>
<path d="M816.765 158.279H771.5V203.544H816.765V158.279Z" stroke="#777F9B" stroke-opacity="0.015" stroke-width="3.5"/>
<path d="M862.029 158.279H816.765V203.544H862.029V158.279Z" stroke="#777F9B" stroke-opacity="0.015" stroke-width="3.5"/>
<path d="M907.294 158.279H862.029V203.544H907.294V158.279Z" stroke="#777F9B" stroke-opacity="0.015" stroke-width="3.5"/>
<path d="M952.559 158.279H907.294V203.544H952.559V158.279Z" stroke="#777F9B" stroke-opacity="0.015" stroke-width="3.5"/>
<path d="M997.824 158.279H952.559V203.544H997.824V158.279Z" stroke="#777F9B" stroke-opacity="0.015" stroke-width="3.5"/>
<path d="M1043.09 158.279H997.823V203.544H1043.09V158.279Z" stroke="#777F9B" stroke-opacity="0.015" stroke-width="3.5"/>
<path d="M1088.35 158.279H1043.09V203.544H1088.35V158.279Z" stroke="#777F9B" stroke-opacity="0.015" stroke-width="3.5"/>
<path d="M1133.62 158.279H1088.35V203.544H1133.62V158.279Z" stroke="#777F9B" stroke-opacity="0.015" stroke-width="3.5"/>
<path d="M1178.88 158.279H1133.62V203.544H1178.88V158.279Z" stroke="#777F9B" stroke-opacity="0.015" stroke-width="3.5"/>
<path d="M1224.15 158.279H1178.88V203.544H1224.15V158.279Z" stroke="#777F9B" stroke-opacity="0.015" stroke-width="3.5"/>
<path d="M1269.41 158.279H1224.15V203.544H1269.41V158.279Z" stroke="#777F9B" stroke-opacity="0.015" stroke-width="3.5"/>
<path d="M1314.68 158.279H1269.41V203.544H1314.68V158.279Z" stroke="#777F9B" stroke-opacity="0.015" stroke-width="3.5"/>
<path d="M1359.94 158.279H1314.68V203.544H1359.94V158.279Z" stroke="#777F9B" stroke-opacity="0.015" stroke-width="3.5"/>
<path d="M1405.21 158.279H1359.94V203.544H1405.21V158.279Z" stroke="#777F9B" stroke-opacity="0.015" stroke-width="3.5"/>
<path d="M1450.47 158.279H1405.21V203.544H1450.47V158.279Z" stroke="#777F9B" stroke-opacity="0.015" stroke-width="3.5"/>
<path d="M1495.74 158.279H1450.47V203.544H1495.74V158.279Z" stroke="#777F9B" stroke-opacity="0.015" stroke-width="3.5"/>
<path d="M1541 158.279H1495.74V203.544H1541V158.279Z" stroke="#777F9B" stroke-opacity="0.015" stroke-width="3.5"/>
<path d="M816.765 203.544H771.5V248.809H816.765V203.544Z" stroke="#777F9B" stroke-opacity="0.015" stroke-width="3.5"/>
<path d="M862.029 203.544H816.765V248.809H862.029V203.544Z" stroke="#777F9B" stroke-opacity="0.015" stroke-width="3.5"/>
<path d="M907.294 203.544H862.029V248.809H907.294V203.544Z" stroke="#777F9B" stroke-opacity="0.015" stroke-width="3.5"/>
<path d="M952.559 203.544H907.294V248.809H952.559V203.544Z" stroke="#777F9B" stroke-opacity="0.015" stroke-width="3.5"/>
<path d="M997.824 203.544H952.559V248.809H997.824V203.544Z" stroke="#777F9B" stroke-opacity="0.015" stroke-width="3.5"/>
<path d="M1043.09 203.544H997.823V248.809H1043.09V203.544Z" stroke="#777F9B" stroke-opacity="0.015" stroke-width="3.5"/>
<path d="M1088.35 203.544H1043.09V248.809H1088.35V203.544Z" stroke="#777F9B" stroke-opacity="0.015" stroke-width="3.5"/>
<path d="M1133.62 203.544H1088.35V248.809H1133.62V203.544Z" stroke="#777F9B" stroke-opacity="0.015" stroke-width="3.5"/>
<path d="M1178.88 203.544H1133.62V248.809H1178.88V203.544Z" stroke="#777F9B" stroke-opacity="0.015" stroke-width="3.5"/>
<path d="M1224.15 203.544H1178.88V248.809H1224.15V203.544Z" stroke="#777F9B" stroke-opacity="0.015" stroke-width="3.5"/>
<path d="M1269.41 203.544H1224.15V248.809H1269.41V203.544Z" stroke="#777F9B" stroke-opacity="0.015" stroke-width="3.5"/>
<path d="M1314.68 203.544H1269.41V248.809H1314.68V203.544Z" stroke="#777F9B" stroke-opacity="0.015" stroke-width="3.5"/>
<path d="M1359.94 203.544H1314.68V248.809H1359.94V203.544Z" stroke="#777F9B" stroke-opacity="0.015" stroke-width="3.5"/>
<path d="M1405.21 203.544H1359.94V248.809H1405.21V203.544Z" stroke="#777F9B" stroke-opacity="0.015" stroke-width="3.5"/>
<path d="M1450.47 203.544H1405.21V248.809H1450.47V203.544Z" stroke="#777F9B" stroke-opacity="0.015" stroke-width="3.5"/>
<path d="M1495.74 203.544H1450.47V248.809H1495.74V203.544Z" stroke="#777F9B" stroke-opacity="0.015" stroke-width="3.5"/>
<path d="M1541 203.544H1495.74V248.809H1541V203.544Z" stroke="#777F9B" stroke-opacity="0.015" stroke-width="3.5"/>
<path d="M816.765 248.809H771.5V294.074H816.765V248.809Z" stroke="#777F9B" stroke-opacity="0.015" stroke-width="3.5"/>
<path d="M862.029 248.809H816.765V294.074H862.029V248.809Z" stroke="#777F9B" stroke-opacity="0.015" stroke-width="3.5"/>
<path d="M907.294 248.809H862.029V294.074H907.294V248.809Z" stroke="#777F9B" stroke-opacity="0.015" stroke-width="3.5"/>
<path d="M952.559 248.809H907.294V294.074H952.559V248.809Z" stroke="#777F9B" stroke-opacity="0.015" stroke-width="3.5"/>
<path d="M997.824 248.809H952.559V294.074H997.824V248.809Z" stroke="#777F9B" stroke-opacity="0.015" stroke-width="3.5"/>
<path d="M1043.09 248.809H997.823V294.074H1043.09V248.809Z" stroke="#777F9B" stroke-opacity="0.015" stroke-width="3.5"/>
<path d="M1088.35 248.809H1043.09V294.074H1088.35V248.809Z" stroke="#777F9B" stroke-opacity="0.015" stroke-width="3.5"/>
<path d="M1133.62 248.809H1088.35V294.074H1133.62V248.809Z" stroke="#777F9B" stroke-opacity="0.015" stroke-width="3.5"/>
<path d="M1178.88 248.809H1133.62V294.074H1178.88V248.809Z" stroke="#777F9B" stroke-opacity="0.015" stroke-width="3.5"/>
<path d="M1224.15 248.809H1178.88V294.074H1224.15V248.809Z" stroke="#777F9B" stroke-opacity="0.015" stroke-width="3.5"/>
<path d="M1269.41 248.809H1224.15V294.074H1269.41V248.809Z" stroke="#777F9B" stroke-opacity="0.015" stroke-width="3.5"/>
<path d="M1314.68 248.809H1269.41V294.074H1314.68V248.809Z" stroke="#777F9B" stroke-opacity="0.015" stroke-width="3.5"/>
<path d="M1359.94 248.809H1314.68V294.074H1359.94V248.809Z" stroke="#777F9B" stroke-opacity="0.015" stroke-width="3.5"/>
<path d="M1405.21 248.809H1359.94V294.074H1405.21V248.809Z" stroke="#777F9B" stroke-opacity="0.015" stroke-width="3.5"/>
<path d="M1450.47 248.809H1405.21V294.074H1450.47V248.809Z" stroke="#777F9B" stroke-opacity="0.015" stroke-width="3.5"/>
<path d="M1495.74 248.809H1450.47V294.074H1495.74V248.809Z" stroke="#777F9B" stroke-opacity="0.015" stroke-width="3.5"/>
<path d="M1541 248.809H1495.74V294.074H1541V248.809Z" stroke="#777F9B" stroke-opacity="0.015" stroke-width="3.5"/>
<path d="M816.765 294.074H771.5V339.338H816.765V294.074Z" stroke="#777F9B" stroke-opacity="0.015" stroke-width="3.5"/>
<path d="M862.029 294.074H816.765V339.338H862.029V294.074Z" stroke="#777F9B" stroke-opacity="0.015" stroke-width="3.5"/>
<path d="M907.294 294.074H862.029V339.338H907.294V294.074Z" stroke="#777F9B" stroke-opacity="0.015" stroke-width="3.5"/>
<path d="M952.559 294.074H907.294V339.338H952.559V294.074Z" stroke="#777F9B" stroke-opacity="0.015" stroke-width="3.5"/>
<path d="M997.824 294.074H952.559V339.338H997.824V294.074Z" stroke="#777F9B" stroke-opacity="0.015" stroke-width="3.5"/>
<path d="M1043.09 294.074H997.823V339.338H1043.09V294.074Z" stroke="#777F9B" stroke-opacity="0.015" stroke-width="3.5"/>
<path d="M1088.35 294.074H1043.09V339.338H1088.35V294.074Z" stroke="#777F9B" stroke-opacity="0.015" stroke-width="3.5"/>
<path d="M1133.62 294.074H1088.35V339.338H1133.62V294.074Z" stroke="#777F9B" stroke-opacity="0.015" stroke-width="3.5"/>
<path d="M1178.88 294.074H1133.62V339.338H1178.88V294.074Z" stroke="#777F9B" stroke-opacity="0.015" stroke-width="3.5"/>
<path d="M1224.15 294.074H1178.88V339.338H1224.15V294.074Z" stroke="#777F9B" stroke-opacity="0.015" stroke-width="3.5"/>
<path d="M1269.41 294.074H1224.15V339.338H1269.41V294.074Z" stroke="#777F9B" stroke-opacity="0.015" stroke-width="3.5"/>
<path d="M1314.68 294.074H1269.41V339.338H1314.68V294.074Z" stroke="#777F9B" stroke-opacity="0.015" stroke-width="3.5"/>
<path d="M1359.94 294.074H1314.68V339.338H1359.94V294.074Z" stroke="#777F9B" stroke-opacity="0.015" stroke-width="3.5"/>
<path d="M1405.21 294.074H1359.94V339.338H1405.21V294.074Z" stroke="#777F9B" stroke-opacity="0.015" stroke-width="3.5"/>
<path d="M1450.47 294.074H1405.21V339.338H1450.47V294.074Z" stroke="#777F9B" stroke-opacity="0.015" stroke-width="3.5"/>
<path d="M1495.74 294.074H1450.47V339.338H1495.74V294.074Z" stroke="#777F9B" stroke-opacity="0.015" stroke-width="3.5"/>
<path d="M1541 294.074H1495.74V339.338H1541V294.074Z" stroke="#777F9B" stroke-opacity="0.015" stroke-width="3.5"/>
<path d="M816.765 339.338H771.5V384.603H816.765V339.338Z" stroke="#777F9B" stroke-opacity="0.015" stroke-width="3.5"/>
<path d="M862.029 339.338H816.765V384.603H862.029V339.338Z" stroke="#777F9B" stroke-opacity="0.015" stroke-width="3.5"/>
<path d="M907.294 339.338H862.029V384.603H907.294V339.338Z" stroke="#777F9B" stroke-opacity="0.015" stroke-width="3.5"/>
<path d="M952.559 339.338H907.294V384.603H952.559V339.338Z" stroke="#777F9B" stroke-opacity="0.015" stroke-width="3.5"/>
<path d="M997.824 339.338H952.559V384.603H997.824V339.338Z" stroke="#777F9B" stroke-opacity="0.015" stroke-width="3.5"/>
<path d="M1043.09 339.338H997.823V384.603H1043.09V339.338Z" stroke="#777F9B" stroke-opacity="0.015" stroke-width="3.5"/>
<path d="M1088.35 339.338H1043.09V384.603H1088.35V339.338Z" stroke="#777F9B" stroke-opacity="0.015" stroke-width="3.5"/>
<path d="M1133.62 339.338H1088.35V384.603H1133.62V339.338Z" stroke="#777F9B" stroke-opacity="0.015" stroke-width="3.5"/>
<path d="M1178.88 339.338H1133.62V384.603H1178.88V339.338Z" stroke="#777F9B" stroke-opacity="0.015" stroke-width="3.5"/>
<path d="M1224.15 339.338H1178.88V384.603H1224.15V339.338Z" stroke="#777F9B" stroke-opacity="0.015" stroke-width="3.5"/>
<path d="M1269.41 339.338H1224.15V384.603H1269.41V339.338Z" stroke="#777F9B" stroke-opacity="0.015" stroke-width="3.5"/>
<path d="M1314.68 339.338H1269.41V384.603H1314.68V339.338Z" stroke="#777F9B" stroke-opacity="0.015" stroke-width="3.5"/>
<path d="M1359.94 339.338H1314.68V384.603H1359.94V339.338Z" stroke="#777F9B" stroke-opacity="0.015" stroke-width="3.5"/>
<path d="M1405.21 339.338H1359.94V384.603H1405.21V339.338Z" stroke="#777F9B" stroke-opacity="0.015" stroke-width="3.5"/>
<path d="M1450.47 339.338H1405.21V384.603H1450.47V339.338Z" stroke="#777F9B" stroke-opacity="0.015" stroke-width="3.5"/>
<path d="M1495.74 339.338H1450.47V384.603H1495.74V339.338Z" stroke="#777F9B" stroke-opacity="0.015" stroke-width="3.5"/>
<path d="M1541 339.338H1495.74V384.603H1541V339.338Z" stroke="#777F9B" stroke-opacity="0.015" stroke-width="3.5"/>
<path d="M816.765 384.603H771.5V429.868H816.765V384.603Z" stroke="#777F9B" stroke-opacity="0.015" stroke-width="3.5"/>
<path d="M862.029 384.603H816.765V429.868H862.029V384.603Z" stroke="#777F9B" stroke-opacity="0.015" stroke-width="3.5"/>
<path d="M907.294 384.603H862.029V429.868H907.294V384.603Z" stroke="#777F9B" stroke-opacity="0.015" stroke-width="3.5"/>
<path d="M952.559 384.603H907.294V429.868H952.559V384.603Z" stroke="#777F9B" stroke-opacity="0.015" stroke-width="3.5"/>
<path d="M997.824 384.603H952.559V429.868H997.824V384.603Z" stroke="#777F9B" stroke-opacity="0.015" stroke-width="3.5"/>
<path d="M1043.09 384.603H997.823V429.868H1043.09V384.603Z" stroke="#777F9B" stroke-opacity="0.015" stroke-width="3.5"/>
<path d="M1088.35 384.603H1043.09V429.868H1088.35V384.603Z" stroke="#777F9B" stroke-opacity="0.015" stroke-width="3.5"/>
<path d="M1133.62 384.603H1088.35V429.868H1133.62V384.603Z" stroke="#777F9B" stroke-opacity="0.015" stroke-width="3.5"/>
<path d="M1178.88 384.603H1133.62V429.868H1178.88V384.603Z" stroke="#777F9B" stroke-opacity="0.015" stroke-width="3.5"/>
<path d="M1224.15 384.603H1178.88V429.868H1224.15V384.603Z" stroke="#777F9B" stroke-opacity="0.015" stroke-width="3.5"/>
<path d="M1269.41 384.603H1224.15V429.868H1269.41V384.603Z" stroke="#777F9B" stroke-opacity="0.015" stroke-width="3.5"/>
<path d="M1314.68 384.603H1269.41V429.868H1314.68V384.603Z" stroke="#777F9B" stroke-opacity="0.015" stroke-width="3.5"/>
<path d="M1359.94 384.603H1314.68V429.868H1359.94V384.603Z" stroke="#777F9B" stroke-opacity="0.015" stroke-width="3.5"/>
<path d="M1405.21 384.603H1359.94V429.868H1405.21V384.603Z" stroke="#777F9B" stroke-opacity="0.015" stroke-width="3.5"/>
<path d="M1450.47 384.603H1405.21V429.868H1450.47V384.603Z" stroke="#777F9B" stroke-opacity="0.015" stroke-width="3.5"/>
<path d="M1495.74 384.603H1450.47V429.868H1495.74V384.603Z" stroke="#777F9B" stroke-opacity="0.015" stroke-width="3.5"/>
<path d="M1541 384.603H1495.74V429.868H1541V384.603Z" stroke="#777F9B" stroke-opacity="0.015" stroke-width="3.5"/>
<path d="M816.765 429.868H771.5V475.132H816.765V429.868Z" stroke="#777F9B" stroke-opacity="0.015" stroke-width="3.5"/>
<path d="M862.029 429.868H816.765V475.132H862.029V429.868Z" stroke="#777F9B" stroke-opacity="0.015" stroke-width="3.5"/>
<path d="M907.294 429.868H862.029V475.132H907.294V429.868Z" stroke="#777F9B" stroke-opacity="0.015" stroke-width="3.5"/>
<path d="M952.559 429.868H907.294V475.132H952.559V429.868Z" stroke="#777F9B" stroke-opacity="0.015" stroke-width="3.5"/>
<path d="M997.824 429.868H952.559V475.132H997.824V429.868Z" stroke="#777F9B" stroke-opacity="0.015" stroke-width="3.5"/>
<path d="M1043.09 429.868H997.823V475.132H1043.09V429.868Z" stroke="#777F9B" stroke-opacity="0.015" stroke-width="3.5"/>
<path d="M1088.35 429.868H1043.09V475.132H1088.35V429.868Z" stroke="#777F9B" stroke-opacity="0.015" stroke-width="3.5"/>
<path d="M1133.62 429.868H1088.35V475.132H1133.62V429.868Z" stroke="#777F9B" stroke-opacity="0.015" stroke-width="3.5"/>
<path d="M1178.88 429.868H1133.62V475.132H1178.88V429.868Z" stroke="#777F9B" stroke-opacity="0.015" stroke-width="3.5"/>
<path d="M1224.15 429.868H1178.88V475.132H1224.15V429.868Z" stroke="#777F9B" stroke-opacity="0.015" stroke-width="3.5"/>
<path d="M1269.41 429.868H1224.15V475.132H1269.41V429.868Z" stroke="#777F9B" stroke-opacity="0.015" stroke-width="3.5"/>
<path d="M1314.68 429.868H1269.41V475.132H1314.68V429.868Z" stroke="#777F9B" stroke-opacity="0.015" stroke-width="3.5"/>
<path d="M1359.94 429.868H1314.68V475.132H1359.94V429.868Z" stroke="#777F9B" stroke-opacity="0.015" stroke-width="3.5"/>
<path d="M1405.21 429.868H1359.94V475.132H1405.21V429.868Z" stroke="#777F9B" stroke-opacity="0.015" stroke-width="3.5"/>
<path d="M1450.47 429.868H1405.21V475.132H1450.47V429.868Z" stroke="#777F9B" stroke-opacity="0.015" stroke-width="3.5"/>
<path d="M1495.74 429.868H1450.47V475.132H1495.74V429.868Z" stroke="#777F9B" stroke-opacity="0.015" stroke-width="3.5"/>
<path d="M1541 429.868H1495.74V475.132H1541V429.868Z" stroke="#777F9B" stroke-opacity="0.015" stroke-width="3.5"/>
<path d="M816.765 475.132H771.5V520.397H816.765V475.132Z" stroke="#777F9B" stroke-opacity="0.015" stroke-width="3.5"/>
<path d="M862.029 475.132H816.765V520.397H862.029V475.132Z" stroke="#777F9B" stroke-opacity="0.015" stroke-width="3.5"/>
<path d="M907.294 475.132H862.029V520.397H907.294V475.132Z" stroke="#777F9B" stroke-opacity="0.015" stroke-width="3.5"/>
<path d="M952.559 475.132H907.294V520.397H952.559V475.132Z" stroke="#777F9B" stroke-opacity="0.015" stroke-width="3.5"/>
<path d="M997.824 475.132H952.559V520.397H997.824V475.132Z" stroke="#777F9B" stroke-opacity="0.015" stroke-width="3.5"/>
<path d="M1043.09 475.132H997.823V520.397H1043.09V475.132Z" stroke="#777F9B" stroke-opacity="0.015" stroke-width="3.5"/>
<path d="M1088.35 475.132H1043.09V520.397H1088.35V475.132Z" stroke="#777F9B" stroke-opacity="0.015" stroke-width="3.5"/>
<path d="M1133.62 475.132H1088.35V520.397H1133.62V475.132Z" stroke="#777F9B" stroke-opacity="0.015" stroke-width="3.5"/>
<path d="M1178.88 475.132H1133.62V520.397H1178.88V475.132Z" stroke="#777F9B" stroke-opacity="0.015" stroke-width="3.5"/>
<path d="M1224.15 475.132H1178.88V520.397H1224.15V475.132Z" stroke="#777F9B" stroke-opacity="0.015" stroke-width="3.5"/>
<path d="M1269.41 475.132H1224.15V520.397H1269.41V475.132Z" stroke="#777F9B" stroke-opacity="0.015" stroke-width="3.5"/>
<path d="M1314.68 475.132H1269.41V520.397H1314.68V475.132Z" stroke="#777F9B" stroke-opacity="0.015" stroke-width="3.5"/>
<path d="M1359.94 475.132H1314.68V520.397H1359.94V475.132Z" stroke="#777F9B" stroke-opacity="0.015" stroke-width="3.5"/>
<path d="M1405.21 475.132H1359.94V520.397H1405.21V475.132Z" stroke="#777F9B" stroke-opacity="0.015" stroke-width="3.5"/>
<path d="M1450.47 475.132H1405.21V520.397H1450.47V475.132Z" stroke="#777F9B" stroke-opacity="0.015" stroke-width="3.5"/>
<path d="M1495.74 475.132H1450.47V520.397H1495.74V475.132Z" stroke="#777F9B" stroke-opacity="0.015" stroke-width="3.5"/>
<path d="M1541 475.132H1495.74V520.397H1541V475.132Z" stroke="#777F9B" stroke-opacity="0.015" stroke-width="3.5"/>
<path d="M816.765 520.397H771.5V565.662H816.765V520.397Z" stroke="#777F9B" stroke-opacity="0.015" stroke-width="3.5"/>
<path d="M862.029 520.397H816.765V565.662H862.029V520.397Z" stroke="#777F9B" stroke-opacity="0.015" stroke-width="3.5"/>
<path d="M907.294 520.397H862.029V565.662H907.294V520.397Z" stroke="#777F9B" stroke-opacity="0.015" stroke-width="3.5"/>
<path d="M952.559 520.397H907.294V565.662H952.559V520.397Z" stroke="#777F9B" stroke-opacity="0.015" stroke-width="3.5"/>
<path d="M997.824 520.397H952.559V565.662H997.824V520.397Z" stroke="#777F9B" stroke-opacity="0.015" stroke-width="3.5"/>
<path d="M1043.09 520.397H997.823V565.662H1043.09V520.397Z" stroke="#777F9B" stroke-opacity="0.015" stroke-width="3.5"/>
<path d="M1088.35 520.397H1043.09V565.662H1088.35V520.397Z" stroke="#777F9B" stroke-opacity="0.015" stroke-width="3.5"/>
<path d="M1133.62 520.397H1088.35V565.662H1133.62V520.397Z" stroke="#777F9B" stroke-opacity="0.015" stroke-width="3.5"/>
<path d="M1178.88 520.397H1133.62V565.662H1178.88V520.397Z" stroke="#777F9B" stroke-opacity="0.015" stroke-width="3.5"/>
<path d="M1224.15 520.397H1178.88V565.662H1224.15V520.397Z" stroke="#777F9B" stroke-opacity="0.015" stroke-width="3.5"/>
<path d="M1269.41 520.397H1224.15V565.662H1269.41V520.397Z" stroke="#777F9B" stroke-opacity="0.015" stroke-width="3.5"/>
<path d="M1314.68 520.397H1269.41V565.662H1314.68V520.397Z" stroke="#777F9B" stroke-opacity="0.015" stroke-width="3.5"/>
<path d="M1359.94 520.397H1314.68V565.662H1359.94V520.397Z" stroke="#777F9B" stroke-opacity="0.015" stroke-width="3.5"/>
<path d="M1405.21 520.397H1359.94V565.662H1405.21V520.397Z" stroke="#777F9B" stroke-opacity="0.015" stroke-width="3.5"/>
<path d="M1450.47 520.397H1405.21V565.662H1450.47V520.397Z" stroke="#777F9B" stroke-opacity="0.015" stroke-width="3.5"/>
<path d="M1495.74 520.397H1450.47V565.662H1495.74V520.397Z" stroke="#777F9B" stroke-opacity="0.015" stroke-width="3.5"/>
<path d="M1541 520.397H1495.74V565.662H1541V520.397Z" stroke="#777F9B" stroke-opacity="0.015" stroke-width="3.5"/>
<path d="M816.765 565.662H771.5V610.926H816.765V565.662Z" stroke="#777F9B" stroke-opacity="0.015" stroke-width="3.5"/>
<path d="M862.029 565.662H816.765V610.926H862.029V565.662Z" stroke="#777F9B" stroke-opacity="0.015" stroke-width="3.5"/>
<path d="M907.294 565.662H862.029V610.926H907.294V565.662Z" stroke="#777F9B" stroke-opacity="0.015" stroke-width="3.5"/>
<path d="M952.559 565.662H907.294V610.926H952.559V565.662Z" stroke="#777F9B" stroke-opacity="0.015" stroke-width="3.5"/>
<path d="M997.824 565.662H952.559V610.926H997.824V565.662Z" stroke="#777F9B" stroke-opacity="0.015" stroke-width="3.5"/>
<path d="M1043.09 565.662H997.823V610.926H1043.09V565.662Z" stroke="#777F9B" stroke-opacity="0.015" stroke-width="3.5"/>
<path d="M1088.35 565.662H1043.09V610.926H1088.35V565.662Z" stroke="#777F9B" stroke-opacity="0.015" stroke-width="3.5"/>
<path d="M1133.62 565.662H1088.35V610.926H1133.62V565.662Z" stroke="#777F9B" stroke-opacity="0.015" stroke-width="3.5"/>
<path d="M1178.88 565.662H1133.62V610.926H1178.88V565.662Z" stroke="#777F9B" stroke-opacity="0.015" stroke-width="3.5"/>
<path d="M1224.15 565.662H1178.88V610.926H1224.15V565.662Z" stroke="#777F9B" stroke-opacity="0.015" stroke-width="3.5"/>
<path d="M1269.41 565.662H1224.15V610.926H1269.41V565.662Z" stroke="#777F9B" stroke-opacity="0.015" stroke-width="3.5"/>
<path d="M1314.68 565.662H1269.41V610.926H1314.68V565.662Z" stroke="#777F9B" stroke-opacity="0.015" stroke-width="3.5"/>
<path d="M1359.94 565.662H1314.68V610.926H1359.94V565.662Z" stroke="#777F9B" stroke-opacity="0.015" stroke-width="3.5"/>
<path d="M1405.21 565.662H1359.94V610.926H1405.21V565.662Z" stroke="#777F9B" stroke-opacity="0.015" stroke-width="3.5"/>
<path d="M1450.47 565.662H1405.21V610.926H1450.47V565.662Z" stroke="#777F9B" stroke-opacity="0.015" stroke-width="3.5"/>
<path d="M1495.74 565.662H1450.47V610.926H1495.74V565.662Z" stroke="#777F9B" stroke-opacity="0.015" stroke-width="3.5"/>
<path d="M1541 565.662H1495.74V610.926H1541V565.662Z" stroke="#777F9B" stroke-opacity="0.015" stroke-width="3.5"/>
<path d="M816.765 610.926H771.5V656.191H816.765V610.926Z" stroke="#777F9B" stroke-opacity="0.015" stroke-width="3.5"/>
<path d="M862.029 610.926H816.765V656.191H862.029V610.926Z" stroke="#777F9B" stroke-opacity="0.015" stroke-width="3.5"/>
<path d="M907.294 610.926H862.029V656.191H907.294V610.926Z" stroke="#777F9B" stroke-opacity="0.015" stroke-width="3.5"/>
<path d="M952.559 610.926H907.294V656.191H952.559V610.926Z" stroke="#777F9B" stroke-opacity="0.015" stroke-width="3.5"/>
<path d="M997.824 610.926H952.559V656.191H997.824V610.926Z" stroke="#777F9B" stroke-opacity="0.015" stroke-width="3.5"/>
<path d="M1043.09 610.926H997.823V656.191H1043.09V610.926Z" stroke="#777F9B" stroke-opacity="0.015" stroke-width="3.5"/>
<path d="M1088.35 610.926H1043.09V656.191H1088.35V610.926Z" stroke="#777F9B" stroke-opacity="0.015" stroke-width="3.5"/>
<path d="M1133.62 610.926H1088.35V656.191H1133.62V610.926Z" stroke="#777F9B" stroke-opacity="0.015" stroke-width="3.5"/>
<path d="M1178.88 610.926H1133.62V656.191H1178.88V610.926Z" stroke="#777F9B" stroke-opacity="0.015" stroke-width="3.5"/>
<path d="M1224.15 610.926H1178.88V656.191H1224.15V610.926Z" stroke="#777F9B" stroke-opacity="0.015" stroke-width="3.5"/>
<path d="M1269.41 610.926H1224.15V656.191H1269.41V610.926Z" stroke="#777F9B" stroke-opacity="0.015" stroke-width="3.5"/>
<path d="M1314.68 610.926H1269.41V656.191H1314.68V610.926Z" stroke="#777F9B" stroke-opacity="0.015" stroke-width="3.5"/>
<path d="M1359.94 610.926H1314.68V656.191H1359.94V610.926Z" stroke="#777F9B" stroke-opacity="0.015" stroke-width="3.5"/>
<path d="M1405.21 610.926H1359.94V656.191H1405.21V610.926Z" stroke="#777F9B" stroke-opacity="0.015" stroke-width="3.5"/>
<path d="M1450.47 610.926H1405.21V656.191H1450.47V610.926Z" stroke="#777F9B" stroke-opacity="0.015" stroke-width="3.5"/>
<path d="M1495.74 610.926H1450.47V656.191H1495.74V610.926Z" stroke="#777F9B" stroke-opacity="0.015" stroke-width="3.5"/>
<path d="M1541 610.926H1495.74V656.191H1541V610.926Z" stroke="#777F9B" stroke-opacity="0.015" stroke-width="3.5"/>
<path d="M816.765 656.191H771.5V701.456H816.765V656.191Z" stroke="#777F9B" stroke-opacity="0.015" stroke-width="3.5"/>
<path d="M862.029 656.191H816.765V701.456H862.029V656.191Z" stroke="#777F9B" stroke-opacity="0.015" stroke-width="3.5"/>
<path d="M907.294 656.191H862.029V701.456H907.294V656.191Z" stroke="#777F9B" stroke-opacity="0.015" stroke-width="3.5"/>
<path d="M952.559 656.191H907.294V701.456H952.559V656.191Z" stroke="#777F9B" stroke-opacity="0.015" stroke-width="3.5"/>
<path d="M997.824 656.191H952.559V701.456H997.824V656.191Z" stroke="#777F9B" stroke-opacity="0.015" stroke-width="3.5"/>
<path d="M1043.09 656.191H997.823V701.456H1043.09V656.191Z" stroke="#777F9B" stroke-opacity="0.015" stroke-width="3.5"/>
<path d="M1088.35 656.191H1043.09V701.456H1088.35V656.191Z" stroke="#777F9B" stroke-opacity="0.015" stroke-width="3.5"/>
<path d="M1133.62 656.191H1088.35V701.456H1133.62V656.191Z" stroke="#777F9B" stroke-opacity="0.015" stroke-width="3.5"/>
<path d="M1178.88 656.191H1133.62V701.456H1178.88V656.191Z" stroke="#777F9B" stroke-opacity="0.015" stroke-width="3.5"/>
<path d="M1224.15 656.191H1178.88V701.456H1224.15V656.191Z" stroke="#777F9B" stroke-opacity="0.015" stroke-width="3.5"/>
<path d="M1269.41 656.191H1224.15V701.456H1269.41V656.191Z" stroke="#777F9B" stroke-opacity="0.015" stroke-width="3.5"/>
<path d="M1314.68 656.191H1269.41V701.456H1314.68V656.191Z" stroke="#777F9B" stroke-opacity="0.015" stroke-width="3.5"/>
<path d="M1359.94 656.191H1314.68V701.456H1359.94V656.191Z" stroke="#777F9B" stroke-opacity="0.015" stroke-width="3.5"/>
<path d="M1405.21 656.191H1359.94V701.456H1405.21V656.191Z" stroke="#777F9B" stroke-opacity="0.015" stroke-width="3.5"/>
<path d="M1450.47 656.191H1405.21V701.456H1450.47V656.191Z" stroke="#777F9B" stroke-opacity="0.015" stroke-width="3.5"/>
<path d="M1495.74 656.191H1450.47V701.456H1495.74V656.191Z" stroke="#777F9B" stroke-opacity="0.015" stroke-width="3.5"/>
<path d="M1541 656.191H1495.74V701.456H1541V656.191Z" stroke="#777F9B" stroke-opacity="0.015" stroke-width="3.5"/>
<path d="M816.765 701.456H771.5V746.721H816.765V701.456Z" stroke="#777F9B" stroke-opacity="0.015" stroke-width="3.5"/>
<path d="M862.029 701.456H816.765V746.721H862.029V701.456Z" stroke="#777F9B" stroke-opacity="0.015" stroke-width="3.5"/>
<path d="M907.294 701.456H862.029V746.721H907.294V701.456Z" stroke="#777F9B" stroke-opacity="0.015" stroke-width="3.5"/>
<path d="M952.559 701.456H907.294V746.721H952.559V701.456Z" stroke="#777F9B" stroke-opacity="0.015" stroke-width="3.5"/>
<path d="M997.824 701.456H952.559V746.721H997.824V701.456Z" stroke="#777F9B" stroke-opacity="0.015" stroke-width="3.5"/>
<path d="M1043.09 701.456H997.823V746.721H1043.09V701.456Z" stroke="#777F9B" stroke-opacity="0.015" stroke-width="3.5"/>
<path d="M1088.35 701.456H1043.09V746.721H1088.35V701.456Z" stroke="#777F9B" stroke-opacity="0.015" stroke-width="3.5"/>
<path d="M1133.62 701.456H1088.35V746.721H1133.62V701.456Z" stroke="#777F9B" stroke-opacity="0.015" stroke-width="3.5"/>
<path d="M1178.88 701.456H1133.62V746.721H1178.88V701.456Z" stroke="#777F9B" stroke-opacity="0.015" stroke-width="3.5"/>
<path d="M1224.15 701.456H1178.88V746.721H1224.15V701.456Z" stroke="#777F9B" stroke-opacity="0.015" stroke-width="3.5"/>
<path d="M1269.41 701.456H1224.15V746.721H1269.41V701.456Z" stroke="#777F9B" stroke-opacity="0.015" stroke-width="3.5"/>
<path d="M1314.68 701.456H1269.41V746.721H1314.68V701.456Z" stroke="#777F9B" stroke-opacity="0.015" stroke-width="3.5"/>
<path d="M1359.94 701.456H1314.68V746.721H1359.94V701.456Z" stroke="#777F9B" stroke-opacity="0.015" stroke-width="3.5"/>
<path d="M1405.21 701.456H1359.94V746.721H1405.21V701.456Z" stroke="#777F9B" stroke-opacity="0.015" stroke-width="3.5"/>
<path d="M1450.47 701.456H1405.21V746.721H1450.47V701.456Z" stroke="#777F9B" stroke-opacity="0.015" stroke-width="3.5"/>
<path d="M1495.74 701.456H1450.47V746.721H1495.74V701.456Z" stroke="#777F9B" stroke-opacity="0.015" stroke-width="3.5"/>
<path d="M1541 701.456H1495.74V746.721H1541V701.456Z" stroke="#777F9B" stroke-opacity="0.015" stroke-width="3.5"/>
<path d="M816.765 746.721H771.5V791.985H816.765V746.721Z" stroke="#777F9B" stroke-opacity="0.015" stroke-width="3.5"/>
<path d="M862.029 746.721H816.765V791.985H862.029V746.721Z" stroke="#777F9B" stroke-opacity="0.015" stroke-width="3.5"/>
<path d="M907.294 746.721H862.029V791.985H907.294V746.721Z" stroke="#777F9B" stroke-opacity="0.015" stroke-width="3.5"/>
<path d="M952.559 746.721H907.294V791.985H952.559V746.721Z" stroke="#777F9B" stroke-opacity="0.015" stroke-width="3.5"/>
<path d="M997.824 746.721H952.559V791.985H997.824V746.721Z" stroke="#777F9B" stroke-opacity="0.015" stroke-width="3.5"/>
<path d="M1043.09 746.721H997.823V791.985H1043.09V746.721Z" stroke="#777F9B" stroke-opacity="0.015" stroke-width="3.5"/>
<path d="M1088.35 746.721H1043.09V791.985H1088.35V746.721Z" stroke="#777F9B" stroke-opacity="0.015" stroke-width="3.5"/>
<path d="M1133.62 746.721H1088.35V791.985H1133.62V746.721Z" stroke="#777F9B" stroke-opacity="0.015" stroke-width="3.5"/>
<path d="M1178.88 746.721H1133.62V791.985H1178.88V746.721Z" stroke="#777F9B" stroke-opacity="0.015" stroke-width="3.5"/>
<path d="M1224.15 746.721H1178.88V791.985H1224.15V746.721Z" stroke="#777F9B" stroke-opacity="0.015" stroke-width="3.5"/>
<path d="M1269.41 746.721H1224.15V791.985H1269.41V746.721Z" stroke="#777F9B" stroke-opacity="0.015" stroke-width="3.5"/>
<path d="M1314.68 746.721H1269.41V791.985H1314.68V746.721Z" stroke="#777F9B" stroke-opacity="0.015" stroke-width="3.5"/>
<path d="M1359.94 746.721H1314.68V791.985H1359.94V746.721Z" stroke="#777F9B" stroke-opacity="0.015" stroke-width="3.5"/>
<path d="M1405.21 746.721H1359.94V791.985H1405.21V746.721Z" stroke="#777F9B" stroke-opacity="0.015" stroke-width="3.5"/>
<path d="M1450.47 746.721H1405.21V791.985H1450.47V746.721Z" stroke="#777F9B" stroke-opacity="0.015" stroke-width="3.5"/>
<path d="M1495.74 746.721H1450.47V791.985H1495.74V746.721Z" stroke="#777F9B" stroke-opacity="0.015" stroke-width="3.5"/>
<path d="M1541 746.721H1495.74V791.985H1541V746.721Z" stroke="#777F9B" stroke-opacity="0.015" stroke-width="3.5"/>
<path d="M816.765 791.985H771.5V837.25H816.765V791.985Z" stroke="#777F9B" stroke-opacity="0.015" stroke-width="3.5"/>
<path d="M862.029 791.985H816.765V837.25H862.029V791.985Z" stroke="#777F9B" stroke-opacity="0.015" stroke-width="3.5"/>
<path d="M907.294 791.985H862.029V837.25H907.294V791.985Z" stroke="#777F9B" stroke-opacity="0.015" stroke-width="3.5"/>
<path d="M952.559 791.985H907.294V837.25H952.559V791.985Z" stroke="#777F9B" stroke-opacity="0.015" stroke-width="3.5"/>
<path d="M997.824 791.985H952.559V837.25H997.824V791.985Z" stroke="#777F9B" stroke-opacity="0.015" stroke-width="3.5"/>
<path d="M1043.09 791.985H997.823V837.25H1043.09V791.985Z" stroke="#777F9B" stroke-opacity="0.015" stroke-width="3.5"/>
<path d="M1088.35 791.985H1043.09V837.25H1088.35V791.985Z" stroke="#777F9B" stroke-opacity="0.015" stroke-width="3.5"/>
<path d="M1133.62 791.985H1088.35V837.25H1133.62V791.985Z" stroke="#777F9B" stroke-opacity="0.015" stroke-width="3.5"/>
<path d="M1178.88 791.985H1133.62V837.25H1178.88V791.985Z" stroke="#777F9B" stroke-opacity="0.015" stroke-width="3.5"/>
<path d="M1224.15 791.985H1178.88V837.25H1224.15V791.985Z" stroke="#777F9B" stroke-opacity="0.015" stroke-width="3.5"/>
<path d="M1269.41 791.985H1224.15V837.25H1269.41V791.985Z" stroke="#777F9B" stroke-opacity="0.015" stroke-width="3.5"/>
<path d="M1314.68 791.985H1269.41V837.25H1314.68V791.985Z" stroke="#777F9B" stroke-opacity="0.015" stroke-width="3.5"/>
<path d="M1359.94 791.985H1314.68V837.25H1359.94V791.985Z" stroke="#777F9B" stroke-opacity="0.015" stroke-width="3.5"/>
<path d="M1405.21 791.985H1359.94V837.25H1405.21V791.985Z" stroke="#777F9B" stroke-opacity="0.015" stroke-width="3.5"/>
<path d="M1450.47 791.985H1405.21V837.25H1450.47V791.985Z" stroke="#777F9B" stroke-opacity="0.015" stroke-width="3.5"/>
<path d="M1495.74 791.985H1450.47V837.25H1495.74V791.985Z" stroke="#777F9B" stroke-opacity="0.015" stroke-width="3.5"/>
<path d="M1541 791.985H1495.74V837.25H1541V791.985Z" stroke="#777F9B" stroke-opacity="0.015" stroke-width="3.5"/>
<rect x="1" y="375" width="1540" height="1009" fill="url(#paint0_linear_35_3)"/>
<rect x="1" width="1540" height="756" fill="url(#paint1_linear_35_3)"/>
<defs>
<linearGradient id="paint0_linear_35_3" x1="771" y1="375" x2="771" y2="1384" gradientUnits="userSpaceOnUse">
<stop stop-color="#00030A" stop-opacity="0"/>
<stop offset="0.598958" stop-color="#00030A"/>
</linearGradient>
<linearGradient id="paint1_linear_35_3" x1="771" y1="0" x2="771" y2="756" gradientUnits="userSpaceOnUse">
<stop stop-color="#00030A"/>
<stop offset="1" stop-color="#00030A" stop-opacity="0"/>
</linearGradient>
</defs>
</svg>
